<svg width="695" height="512" viewBox="0 0 695 512" fill="none" xmlns="http://www.w3.org/2000/svg">
<g clip-path="url(#clip0_791_557)">
<mask id="mask0_791_557" style="mask-type:alpha" maskUnits="userSpaceOnUse" x="158" y="29" width="361" height="360">
<path d="M465.473 335.75C535.598 265.624 535.598 151.926 465.473 81.799C395.349 11.6723 281.655 11.6723 211.53 81.799C141.406 151.926 141.406 265.624 211.53 335.75C281.655 405.877 395.349 405.877 465.473 335.75Z" fill="#E0F3FF"/>
</mask>
<g mask="url(#mask0_791_557)">
<path d="M466.631 335.4C536.756 265.273 536.756 151.575 466.631 81.4487C396.507 11.322 282.813 11.322 212.688 81.4487C142.564 151.575 142.564 265.273 212.688 335.4C282.813 405.527 396.507 405.527 466.631 335.4Z" fill="url(#paint0_linear_791_557)"/>
<path d="M348.207 213.719C348.276 214.217 348.334 214.484 348.334 214.484C347.767 216.847 347.118 219.036 346.411 221.04C344.141 227.562 341.315 232.195 339.195 235.08C337.353 237.57 336.044 238.763 336.044 238.763C319.144 233.458 310.816 216.928 307.619 208.704C307.596 208.669 307.584 208.622 307.573 208.576C306.959 207.024 306.553 205.773 306.298 204.962C306.101 204.302 306.009 203.943 306.009 203.943C306.078 203.804 306.148 203.653 306.217 203.514L306.252 203.456C306.53 202.877 306.808 202.286 307.063 201.719C309.275 196.877 310.746 192.347 311.696 188.78C312.519 185.745 312.959 183.405 313.167 182.165C313.272 181.528 313.318 181.181 313.318 181.181L321.195 185.339L348.334 199.703C347.929 202.194 347.767 204.533 347.755 206.584C347.732 208.032 347.778 209.329 347.859 210.43C347.94 211.773 348.079 212.839 348.184 213.534C348.184 213.615 348.195 213.661 348.207 213.719V213.719Z" fill="#FE9083"/>
<path d="M340.678 240.582C339.115 242.134 337.273 243.524 335.072 244.683C335.026 244.717 334.979 244.741 334.933 244.764C334.933 244.764 334.875 244.729 334.771 244.671C334.18 244.3 332.165 243.061 329.454 241.022C322.365 235.682 310.527 224.886 307.145 210.337C307.133 210.314 307.133 210.302 307.121 210.279C306.728 208.553 306.45 206.792 306.311 204.962C306.276 204.476 306.241 204.001 306.229 203.514C306.229 203.514 308.581 209.04 312.658 215.005C317.454 222.025 324.647 229.682 333.242 229.728C340.678 229.774 344.489 224.689 346.424 219.998C347.246 218.005 347.733 216.094 347.987 214.669C347.999 214.658 347.999 214.646 347.999 214.646C348.08 214.229 348.138 213.858 348.196 213.546C348.219 213.372 348.242 213.233 348.254 213.105C348.323 212.584 348.346 212.283 348.346 212.283C348.346 212.283 351.196 230.076 340.69 240.582H340.678Z" fill="url(#paint1_linear_791_557)"/>
<path style="mix-blend-mode:multiply" opacity="0.5" d="M340.678 240.582C339.114 242.134 337.273 243.524 335.072 244.683H334.771V244.66C334.168 244.3 332.153 243.061 329.442 241.022C322.353 235.682 310.515 224.886 307.133 210.337C307.121 210.314 307.121 210.302 307.11 210.279C306.716 208.553 306.438 206.792 306.299 204.962C306.264 204.476 306.229 204.001 306.218 203.514C306.218 203.514 308.569 209.04 312.647 215.005C312.647 215.005 317.326 227.863 327.45 234.234C332.523 237.42 336.369 236.956 339.195 235.08C342.022 233.215 343.852 229.96 344.929 227.504C346.006 225.037 346.354 222.732 346.412 221.04C346.423 220.658 346.423 220.311 346.412 219.998C347.234 218.005 347.721 216.094 347.976 214.669C347.987 214.658 347.987 214.646 347.987 214.646C348.068 214.229 348.126 213.858 348.184 213.546C348.207 213.372 348.23 213.233 348.242 213.105C348.312 212.584 348.335 212.283 348.335 212.283C348.335 212.283 351.184 230.076 340.678 240.582V240.582Z" fill="url(#paint2_linear_791_557)"/>
<path d="M405.73 345.635C405.603 345.693 405.545 345.727 405.545 345.727C404.595 345.843 401.641 345.195 397.772 341.847H397.761C397.761 341.847 397.749 341.812 397.726 341.801C397.726 341.789 397.703 341.766 397.68 341.754C394.436 338.916 390.544 334.178 386.664 326.417C378.903 310.907 376.679 300.551 376.32 298.744L376.274 298.466L371.745 305.648C368.675 314.88 362.86 353.083 362.965 354.728C363.069 356.373 368.119 364.389 368.015 365.373C368.015 365.373 368.015 365.385 368.003 365.397C367.864 366.393 365.594 368.582 364.945 370.968C364.505 372.555 367.586 377.559 369.752 381.301C370.876 383.259 371.745 384.857 371.745 385.46C371.745 387.209 366.254 395.769 366.254 395.769V400.379L366.173 400.46L365.918 400.692L365.71 400.866C363.625 402.511 354.787 407.897 327.172 409.38C294.449 411.129 272.649 400.599 272.649 400.599L274.294 396.093C274.294 396.093 272.765 394.784 272.649 394.124C272.545 393.464 273.854 391.923 273.854 391.923C273.854 391.923 270.564 390.174 270.564 387.973C270.564 385.772 277.155 378.984 276.935 373.158C276.715 367.343 271.665 362.188 271.004 358.898C270.344 355.608 279.565 347.488 279.565 347.488C271.665 322.467 270.124 288.886 270.124 288.886L268.595 287.125C268.595 287.125 259.155 308.636 250.595 319.166C249.575 320.417 248.498 321.656 247.386 322.85C245 325.433 242.463 327.854 240.019 329.974C234.088 335.14 228.702 338.534 227.335 338.268C225.134 337.827 216.354 320.487 216.76 302.706C216.945 294.249 222.042 284.786 227.335 277.198C227.903 276.387 228.47 275.588 229.05 274.812C232.803 269.704 236.405 265.696 238.131 263.865C238.803 263.147 239.185 262.765 239.185 262.765C239.185 262.765 237.98 258.884 237.158 255.514C237.146 255.432 237.123 255.351 237.1 255.27C237.1 255.236 237.088 255.189 237.077 255.154C237.065 255.096 237.054 255.073 237.054 255.073C236.567 253 236.266 251.204 236.544 250.764C237.274 249.594 241.525 248.274 242.255 247.405C242.984 246.525 246.054 231.744 248.394 230.134C250.641 228.593 254.591 227.469 267.761 222.291C268.41 222.037 269.07 221.782 269.765 221.504C284.534 215.654 299.025 208.553 299.025 208.553L304.585 201.719H307.063L306.253 203.456L306.218 203.514C306.612 205.275 307.063 206.966 307.573 208.576C307.585 208.623 307.596 208.669 307.619 208.704C315.264 232.821 334.933 240.594 334.933 240.594C348.601 230.504 348.335 214.484 348.335 214.484V212.283L350.895 213.048L352.644 217.218C352.644 217.218 355.609 221.828 367.355 226.994C369.382 227.886 371.559 229.01 373.807 230.296C384.556 236.4 396.51 245.841 397.425 247.845C397.518 248.054 397.622 248.378 397.738 248.841C399 253.811 401.595 272.379 404.004 279.005C405.51 283.141 407.885 285.423 409.634 286.604C409.634 286.604 409.642 286.608 409.657 286.616C410.954 287.508 411.904 287.786 411.904 287.786C412.089 288.805 412.263 289.813 412.425 290.809C417.464 322.572 407.885 344.129 405.73 345.635V345.635Z" fill="url(#paint3_linear_791_557)"/>
<path style="mix-blend-mode:multiply" opacity="0.5" d="M279.669 285.677L270.124 288.886L268.595 287.125C268.595 287.125 259.155 308.636 250.595 319.166C249.575 320.417 248.498 321.656 247.386 322.85C245 325.433 242.463 327.854 240.019 329.974L232.745 298.616L229.05 274.812C232.803 269.703 236.405 265.696 238.131 263.865C238.803 263.147 239.185 262.765 239.185 262.765C239.185 262.765 237.981 258.884 237.158 255.513C237.147 255.432 237.123 255.351 237.1 255.27C237.1 255.235 237.089 255.189 237.077 255.154C237.065 255.096 237.054 255.073 237.054 255.073C236.567 253 236.266 251.204 236.544 250.764C237.274 249.594 241.525 248.274 242.255 247.405C242.985 246.524 246.054 231.744 248.394 230.134C248.394 230.134 246.865 244.324 254.985 262.325L258.935 267.885L270.495 277.175C270.495 277.175 274.885 283.002 279.669 285.677V285.677Z" fill="url(#paint4_linear_791_557)"/>
<path d="M252.054 311.347C250.004 326.556 227.335 338.268 227.335 338.268C222.285 338.268 216.644 329.487 211.524 318.656C206.404 307.826 206.091 276.712 205.825 274.789C205.547 272.866 202.697 269.02 202.524 267.375C202.361 265.73 207.134 262.325 207.134 262.325L207.099 262.244L207.064 262.163C206.566 261.097 203.763 255.085 203.96 253.984C204.18 252.78 209.543 250.15 209.543 250.15L209.879 256.07C209.879 256.07 222.366 253.706 226.594 244.034L227.335 241.069L229.42 242.459V255.189C229.42 255.189 229.849 257.17 230.509 257.17C231.169 257.17 236.034 254.737 237.053 255.073C238.084 255.409 239.092 262.22 240.459 263.089C241.814 263.97 245.44 266.495 245.984 267.7C246.227 268.244 246.251 270.202 246.274 272.507C246.309 275.333 246.332 278.669 246.749 280.546C247.525 283.94 254.104 296.126 252.054 311.347V311.347Z" fill="url(#paint5_linear_791_557)"/>
<path d="M459.384 298.315C458.365 299.925 453.245 303.296 451.925 304.617C450.604 305.926 451.925 310.258 451.925 310.258C430.414 333.089 407.989 344.523 405.73 345.635C405.603 345.693 405.545 345.727 405.545 345.727C392.039 336.646 393.197 321.691 397.68 309.088C401.966 296.995 409.31 287.067 409.634 286.639H409.645V286.616C409.9 286.523 413.758 284.924 416.514 284.716C417.429 284.646 418.263 285.005 419.051 285.504C420.696 286.523 422.086 288.133 423.43 287.461C425.41 286.465 429.835 276.005 432.835 275.715C434.932 275.518 437.839 277.65 439.774 278.866C440.619 279.399 441.28 279.758 441.604 279.665C442.704 279.376 446.434 274.904 446.735 274.789C447.025 274.661 448.728 275.912 448.728 275.912L447.535 277.395C449.365 287.936 455.365 295.025 455.365 295.025L459.384 289.141C459.384 289.141 460.415 296.705 459.384 298.315V298.315Z" fill="url(#paint6_linear_791_557)"/>
<path d="M348.265 213.268C348.242 213.418 348.219 213.569 348.207 213.719C348.149 214.032 348.08 214.333 347.987 214.646C347.987 214.646 347.987 214.658 347.975 214.669C346.597 219.778 341.025 225.002 333.994 222.488C326.314 219.743 311.696 188.78 311.696 188.78L313.167 182.165L347.859 210.43L348.242 213.105L348.265 213.268V213.268Z" fill="#CB4D7A"/>
<path d="M232.744 207.603C232.744 207.603 230.624 195.892 231.574 187.262C232.524 178.632 231.331 168.821 231.331 168.821C231.331 168.821 229.234 167.941 227.694 168.821C226.153 169.701 222.574 178.621 224.184 185.791C225.794 192.961 224.555 210.152 224.555 210.152H222.145L216.875 202.912L214.315 202.182C214.315 202.182 199.569 216.082 199.79 224.353L201.712 231.709L219.863 231.083L231.713 217.554L232.733 207.603H232.744Z" fill="#EE8183"/>
<path d="M214.304 202.182C214.304 202.182 214.686 211.403 216.748 219.303C216.748 219.303 216.4 222.535 212.613 222.755L211.674 221.712C211.674 221.712 211.014 225.384 207.666 225.662L204.481 222.477L205.303 225.106C205.303 225.106 204.157 227.909 201.133 227.794C201.133 227.794 196.083 223.844 195.759 218.689L200.751 214.461V211.229L206.682 207.059L206.786 204.696C206.786 204.696 210.261 202.112 214.281 202.17L214.304 202.182Z" fill="url(#paint7_linear_791_557)"/>
<path style="mix-blend-mode:multiply" opacity="0.6" d="M231.783 184.783C231.783 184.783 230.891 187.042 229.628 187.923C228.366 188.803 224.705 189.475 224.705 189.475L224.543 210.163H222.134L216.863 202.924C216.863 202.924 219.539 207.059 219.701 210.163L217.616 211.183L215.809 204.985L214.952 209.445L215.809 214.994C215.809 214.994 218.937 212.306 224.589 212.202L225.435 213.743C225.435 213.743 215.207 222.21 212.855 227.203C212.855 227.203 217.906 220.786 229.431 213.708L230.532 210.302L231.991 202.182C231.991 202.182 230.613 190.483 231.806 184.783H231.783Z" fill="url(#paint8_linear_791_557)"/>
<path d="M240.354 220.844C239.405 223.693 229.455 235.543 228.354 238.115C227.254 240.675 226.593 244.034 226.593 244.034C221.705 254.61 209.879 256.07 209.879 256.07L209.334 246.525C209.334 246.525 202.975 242.864 201.898 240.86V240.825L201.759 240.49C201.434 238.625 201.712 231.709 201.712 231.709L212.844 227.203C217.674 220.948 229.42 213.708 229.42 213.708L229.964 210.43C221.532 206.283 222.945 193.738 224.369 192.197C225.794 190.668 228.424 190.668 228.424 190.668C228.424 190.668 231.505 200.757 233.474 205.484C235.455 210.198 241.304 217.994 240.354 220.844V220.844Z" fill="url(#paint9_linear_791_557)"/>
<path d="M206.809 204.707C206.809 204.707 208.049 216.233 211.698 221.712C211.698 221.712 207.076 215.967 206.705 207.059L206.809 204.696V204.707Z" fill="#E28183"/>
<path d="M200.774 211.24C200.774 211.24 201.979 220.519 207.69 225.674C207.69 225.674 202.639 223.149 200.774 214.484V211.252V211.24Z" fill="#E28183"/>
<path style="mix-blend-mode:multiply" opacity="0.91" d="M229.895 235.659C229.895 235.659 217.351 247.845 209.335 246.524L209.879 256.069C209.879 256.069 223.05 254.923 227.335 241.069C227.335 241.069 228.876 237.084 229.907 235.659H229.895Z" fill="url(#paint10_linear_791_557)"/>
<path d="M495.2 252.224C495.2 252.224 483.675 273.294 470.18 279.77H465.57L454.925 295.906C454.925 295.906 448.044 291.585 447.535 277.395C447.535 277.395 449.944 274.881 450.535 272.043C450.535 272.043 446.736 269.055 445.705 266.865C444.685 264.664 444.315 258.085 443.585 255.374C442.855 252.664 436.635 247.034 435.245 246.304C433.855 245.575 427.565 245.204 427.565 245.204C427.565 245.204 426.685 242.933 427.565 241.845C428.445 240.744 438.245 236.933 443.585 240.594C443.585 240.594 443.956 243.374 444.535 244.845C445.125 246.304 449.805 251.494 450.535 251.494C451.265 251.494 454.415 248.864 455.805 246.814C457.137 244.845 464.215 229.589 465.929 224.434C465.941 224.376 465.952 224.33 465.975 224.284C465.999 224.203 466.033 224.121 466.045 224.052C466.068 223.994 466.08 223.948 466.091 223.901C466.103 223.878 466.114 223.867 466.114 223.843C467.435 219.384 475.115 210.823 479.215 208.483C479.215 208.483 480.964 208.043 481.914 210.233C481.914 210.233 478.624 219.604 475.184 225.164C474.605 226.102 473.98 227.203 473.331 228.384H473.319C470.389 233.771 467.087 240.825 466.612 241.856L466.555 241.984L468.385 242.922L473.331 238.23L478.404 233.423L490.046 245.714L488.899 247.173L485.262 251.841L487.103 252.177L491.389 247.439L495.2 252.224V252.224Z" fill="url(#paint11_linear_791_557)"/>
<path style="mix-blend-mode:multiply" opacity="0.6" d="M492.502 256.707L488.818 262.116C488.818 262.116 468.605 246.524 464.215 245.204C459.825 243.883 458.215 244.764 458.215 244.764L453.686 250.544C453.686 250.544 462.026 257.934 462.756 267.885C462.756 267.885 459.976 255.305 450.535 251.494C451.265 251.494 454.416 248.864 455.806 246.814C457.138 244.845 464.215 229.589 465.929 224.434C465.698 225.315 465.397 227.029 466.115 228.384C467.111 230.226 472.972 228.489 473.32 228.384H473.331L466.613 241.856L466.555 241.984L468.385 242.922L473.331 238.231L470.852 243.988L488.899 247.173L485.262 251.841L487.104 252.177L492.502 256.707V256.707Z" fill="url(#paint12_linear_791_557)"/>
<path d="M478.404 233.423C478.404 233.423 481.914 232.914 484.184 237.443L483.674 238.902C483.674 238.902 487.091 239.574 490.404 245.123C490.404 245.123 487.474 250.463 480.234 252.872C480.234 252.872 476.863 251.922 476.284 249.073L476.944 247.243L474.315 249.223C474.315 249.223 471.164 250.173 469.774 245.493L478.404 233.423Z" fill="url(#paint13_linear_791_557)"/>
<path d="M496.255 250.764C496.255 250.764 496.984 247.393 493.405 245.204L486.455 252.884C486.455 252.884 486.664 255.351 489.675 255.884C489.675 255.884 494.436 254.274 496.255 250.764Z" fill="url(#paint14_linear_791_557)"/>
<path style="mix-blend-mode:multiply" opacity="0.91" d="M445.704 266.865C445.704 266.865 453.755 275.854 465.569 279.77L460.473 287.484L449.851 273.989L450.534 272.043C450.534 272.043 446.283 268.846 445.704 266.865V266.865Z" fill="url(#paint15_linear_791_557)"/>
<path d="M483.675 238.914C483.675 238.914 480.305 244.474 476.945 247.254L476.285 249.084C476.285 249.084 482.818 244.671 485.216 239.586C485.216 239.586 484.44 239.03 483.664 238.914H483.675Z" fill="#E28183"/>
<path style="mix-blend-mode:multiply" opacity="0.5" d="M459.384 298.315C458.365 299.925 453.245 303.296 451.924 304.617C450.604 305.926 451.924 310.258 451.924 310.258C430.414 333.09 407.989 344.523 405.73 345.635C405.602 345.693 405.545 345.727 405.545 345.727C403.784 345.947 395.224 343.538 386.664 326.417C378.903 310.907 376.679 300.551 376.32 298.744L376.273 298.466L378.162 295.906L380.965 264.305L382.934 270.665C390.394 261.664 397.425 247.845 397.425 247.845L397.737 248.841C399 253.811 401.595 272.379 404.004 279.005C405.51 283.141 407.884 285.423 409.633 286.604V286.627C402.765 292.906 399.359 301.918 397.679 309.088C396.139 315.668 396.035 320.707 396.035 320.707C396.035 320.707 397.934 311.787 403.934 301.061C406.112 297.157 409.286 293.67 412.425 290.809C414.788 288.654 417.139 286.847 419.051 285.504C420.696 286.523 422.086 288.133 423.429 287.461C414.394 301.026 414.614 327.877 423.105 322.757C431.584 317.637 433.53 306.771 433.53 306.771C431.526 293.531 432.128 278.6 433.738 275.762C435.696 275.831 441.291 279.758 441.615 279.665C441.105 295.246 448.426 305.648 448.426 305.648L453.256 298.176C446.225 286.326 446.746 274.789 446.746 274.789C447.036 274.661 448.739 275.912 448.739 275.912L447.546 277.395C449.376 287.936 455.376 295.025 455.376 295.025L459.395 289.141C459.395 289.141 460.426 296.705 459.395 298.315H459.384Z" fill="url(#paint16_linear_791_557)"/>
<path style="mix-blend-mode:multiply" opacity="0.5" d="M366.254 395.769V400.379L366.173 400.461L365.918 400.692L365.71 400.866C363.625 402.511 354.786 407.897 327.172 409.38C294.449 411.129 272.649 400.6 272.649 400.6L274.294 396.093C274.294 396.093 272.765 394.785 272.649 394.124C272.545 393.464 273.854 391.923 273.854 391.923C273.854 391.923 270.564 390.174 270.564 387.973C270.564 385.992 275.939 380.259 276.807 374.872C276.912 374.293 276.958 373.725 276.935 373.158C276.715 367.366 271.711 362.234 271.016 358.945C271.016 358.91 271.016 358.898 271.016 358.898C270.356 355.608 279.576 347.488 279.576 347.488C271.676 322.467 270.135 288.886 270.135 288.886L268.606 287.126C268.606 287.126 259.166 308.636 250.606 319.166C242.046 329.707 229.536 338.708 227.347 338.268C222.296 338.268 216.655 329.487 211.535 318.656C206.416 307.826 206.103 276.712 205.836 274.789C205.558 272.866 202.709 269.02 202.535 267.375C208.026 276.816 216.771 274.036 216.771 274.036C210.435 274.175 207.145 262.325 207.145 262.325L207.111 262.244L207.076 262.163L203.983 253.996C204.331 254.39 211.57 262.487 218.566 257.494C225.737 252.374 229.432 242.459 229.432 242.459V255.189C229.432 255.189 229.86 257.17 230.52 257.17C230.092 263.031 228.852 270.167 227.347 277.198C224.092 292.408 219.632 307.096 219.632 307.096C219.632 307.096 231.725 300.516 235.976 283.836C238.003 275.855 238.339 268.916 238.142 263.865C237.969 259.545 237.401 256.591 237.169 255.514C237.158 255.432 237.135 255.351 237.111 255.27C237.111 255.236 237.1 255.189 237.088 255.154C237.088 255.131 237.077 255.108 237.077 255.097L238.247 257.575L240.471 263.089C243.054 284.496 237.725 316.757 237.725 316.757C245.486 307.096 247.096 285.735 246.76 280.546C246.61 278.067 246.413 275.009 246.285 272.507C246.112 269.773 245.996 267.7 245.996 267.7L261.877 277.175L258.946 267.885L270.506 277.175C270.506 277.175 280.896 289.686 291.576 291.145C302.256 292.616 341.466 291.736 341.466 291.736C341.466 291.736 307.376 293.925 297.426 296.856C287.476 299.787 285.576 303.146 285.576 303.146C292.769 339.739 332.581 352.075 333.821 352.446C297.704 347.025 280.896 316.316 280.896 316.316C280.896 316.316 280.306 333.588 283.086 340.167C285.866 346.747 302.256 362.848 323.326 366.208C325.098 366.486 326.847 366.659 328.573 366.74C346.342 367.574 361.053 358.493 362.559 357.52C362.64 357.462 362.686 357.439 362.686 357.439C362.686 357.439 362.675 357.462 362.652 357.497C362.084 358.365 354.798 368.605 325.376 369.729C323.593 369.798 321.855 369.787 320.164 369.717H320.141C292.874 368.571 278.985 350.407 278.985 350.407C278.985 350.407 268.896 355.828 275.336 363.868C275.406 363.949 275.475 364.041 275.545 364.122C277.445 366.312 281.626 368.988 286.572 371.745C286.711 371.826 286.85 371.907 286.978 371.976C292.955 375.278 299.963 378.683 305.384 381.498C305.418 381.51 305.441 381.521 305.465 381.533C308.777 383.259 311.5 384.741 313.017 385.853C313.029 385.853 313.029 385.865 313.029 385.865C314.558 386.977 314.87 387.695 313.376 387.869C305.766 388.749 276.946 382.459 275.777 384.209C274.607 385.969 277.201 390.499 277.201 390.499C303.658 403.611 360.265 397.148 362.049 396.951C314.673 409.079 275.916 393.719 275.916 393.719L277.201 398.26C277.201 398.26 298.306 405.569 323.176 406.16C348.057 406.739 363.567 400.379 363.567 400.379L366.266 395.769H366.254Z" fill="url(#paint17_linear_791_557)"/>
<path style="mix-blend-mode:multiply" opacity="0.5" d="M346.875 291.585C346.875 291.585 365.721 292.605 378.173 295.906L371.756 305.648C371.756 305.648 362.095 297.145 346.887 291.585H346.875Z" fill="url(#paint18_linear_791_557)"/>
<path style="mix-blend-mode:multiply" opacity="0.5" d="M364.482 343.526C364.482 343.526 352.725 353.338 341.165 357.867C329.604 362.408 318.484 362.837 318.484 362.837C318.484 362.837 325.133 364.817 341.477 362.176C357.833 359.547 363.428 350.685 363.428 350.685L364.482 343.515V343.526Z" fill="url(#paint19_linear_791_557)"/>
<path style="mix-blend-mode:multiply" opacity="0.5" d="M369.751 381.301C347.998 386.931 320.383 378.868 320.615 377.884C320.846 376.899 328.179 378.324 345.183 374.918C361.666 371.617 367.643 365.756 368.002 365.396C367.863 366.393 365.593 368.582 364.944 370.968C364.504 372.555 367.585 377.559 369.751 381.301V381.301Z" fill="url(#paint20_linear_791_557)"/>
<path style="mix-blend-mode:multiply" opacity="0.5" d="M310.666 294.539C292.086 296.427 287.082 301.605 287.082 301.605C281.858 302.265 270.124 288.886 270.124 288.886L268.595 287.125C268.595 287.125 259.155 308.636 250.595 319.166C249.575 320.417 248.498 321.656 247.386 322.849L248.602 320.116C248.602 320.116 250.595 319.166 251.174 308.706C251.764 298.257 246.784 282.666 246.749 280.546C246.714 278.426 245.984 267.699 245.984 267.699L261.865 277.175L258.935 267.885L270.495 277.175C270.495 277.175 275.024 283.986 286.457 289.662C297.241 295.025 309.334 294.597 310.666 294.539Z" fill="url(#paint21_linear_791_557)"/>
<path style="mix-blend-mode:multiply" opacity="0.5" d="M268.595 287.125L279.668 285.677C279.668 285.677 284.093 288.608 292.978 292.222L285.576 303.146C285.576 303.146 288.518 318.714 296.951 327.483C296.951 327.483 274.572 315.054 271.421 304.605L268.606 287.125H268.595Z" fill="url(#paint22_linear_791_557)"/>
<path style="mix-blend-mode:multiply" opacity="0.5" d="M203.971 253.996L207.133 262.325C207.133 262.325 210.353 273.561 216.759 274.036C223.164 274.511 229.419 255.189 229.419 255.189V242.459C229.419 242.459 222.608 257.054 215.253 258.699C207.897 260.344 203.971 253.996 203.971 253.996V253.996Z" fill="url(#paint23_linear_791_557)"/>
<path style="mix-blend-mode:multiply" opacity="0.5" d="M242.255 247.405C242.255 247.405 247.965 258.815 254.985 262.325C254.985 262.325 246.633 242.053 248.394 230.134C248.394 230.134 245.324 232.045 242.255 247.405Z" fill="url(#paint24_linear_791_557)"/>
<path style="mix-blend-mode:multiply" opacity="0.76" d="M380.964 264.305L382.933 270.665L384.926 322.849C384.926 322.849 379.864 312.922 376.319 298.744L378.161 295.906C378.161 295.906 381.254 276.237 380.964 264.305V264.305Z" fill="url(#paint25_linear_791_557)"/>
<path style="mix-blend-mode:multiply" opacity="0.5" d="M441.604 279.666C441.604 279.666 440.492 305.3 451.38 307.513L451.924 310.258C451.924 310.258 437.827 309.737 441.604 279.666Z" fill="url(#paint26_linear_791_557)"/>
<path style="mix-blend-mode:multiply" opacity="0.3" d="M423.429 287.461C423.429 287.461 423.012 288.376 419.05 285.504C419.05 285.504 405.347 295.211 400.065 308.891C400.065 308.891 408.51 296.323 413.004 294.968C417.498 293.612 418.587 298.628 418.587 298.628C418.587 298.628 420.371 291.562 423.429 287.473V287.461Z" fill="url(#paint27_linear_791_557)"/>
<path style="mix-blend-mode:multiply" opacity="0.5" d="M202.524 267.375C202.524 267.375 207.794 277.094 217.675 274.047C217.675 274.047 211.756 278.032 205.825 274.789C205.825 274.789 202.142 268.476 202.524 267.375V267.375Z" fill="url(#paint28_linear_791_557)"/>
<path style="mix-blend-mode:multiply" opacity="0.5" d="M237.053 255.073C237.053 255.073 244.304 282.179 225.389 302.543C225.389 302.543 237.667 296.242 240.459 281.646C243.25 267.051 237.053 255.085 237.053 255.085V255.073Z" fill="url(#paint29_linear_791_557)"/>
<path style="mix-blend-mode:multiply" opacity="0.5" d="M366.949 233.412C366.949 233.412 366.138 245.644 360.265 254.425C354.404 263.205 342.774 269.124 342.774 269.124C342.774 269.124 357.369 263.749 364.065 256.174C370.76 248.598 366.949 233.4 366.949 233.4V233.412Z" fill="url(#paint30_linear_791_557)"/>
<path style="mix-blend-mode:multiply" opacity="0.5" d="M292.295 215.005C292.295 215.005 292.295 225.234 295.584 235.659C298.874 246.084 327.45 264.305 327.45 264.305C327.45 264.305 297.994 252.073 292.295 241.068C286.596 230.064 292.295 215.005 292.295 215.005V215.005Z" fill="url(#paint31_linear_791_557)"/>
<path d="M291.958 263.726V280.384C291.958 280.384 330.31 280.071 373.319 282.921L374.304 267.92C374.304 267.92 336.913 263.483 291.97 263.715L291.958 263.726Z" fill="url(#paint32_linear_791_557)"/>
<path d="M299.071 267.526C299.071 267.236 299.221 267.109 299.488 267.109L307.26 267.34C308.025 267.363 308.685 267.479 309.218 267.688C309.751 267.896 310.179 268.186 310.504 268.557C310.828 268.927 311.048 269.356 311.187 269.877C311.326 270.387 311.384 270.954 311.361 271.58L311.291 273.711C311.268 274.337 311.175 274.904 311.013 275.403C310.851 275.901 310.596 276.329 310.249 276.677C309.901 277.024 309.461 277.279 308.917 277.464C308.372 277.638 307.712 277.719 306.947 277.696L302.766 277.569L301.897 275.125H301.781L301.712 277.534L298.781 277.441L299.082 267.514L299.071 267.526ZM301.781 274.858L306.751 275.009C307.307 275.02 307.712 274.916 307.955 274.673C308.198 274.43 308.326 274.001 308.349 273.375L308.407 271.638C308.43 270.989 308.326 270.549 308.094 270.306C307.863 270.062 307.469 269.935 306.913 269.923L302.164 269.784C302.094 269.784 302.048 269.808 302.001 269.842C301.967 269.889 301.943 269.935 301.943 269.993L301.793 274.858H301.781Z" fill="#EBEFFF"/>
<path d="M315.554 271.962H315.45L315.357 275.067C315.357 275.194 315.415 275.264 315.554 275.275L324.288 275.542L324.207 278.229L312.751 277.882C312.473 277.882 312.346 277.731 312.346 277.441L312.635 267.931C312.635 267.642 312.786 267.514 313.064 267.514L324.195 267.85C324.485 267.85 324.624 268.001 324.612 268.29L324.531 270.978L321.786 271.904H321.67L321.717 270.526C321.717 270.422 321.67 270.364 321.578 270.364L315.705 270.19C315.624 270.19 315.577 270.213 315.554 270.248C315.531 270.294 315.52 270.341 315.52 270.387L315.485 271.684L320.327 271.835L320.257 273.943L316.203 273.816L315.577 271.974L315.554 271.962Z" fill="#EBEFFF"/>
<path d="M334.98 271.777H334.864L334.899 270.63C334.899 270.514 334.852 270.456 334.736 270.456L329.269 270.294C329.072 270.294 328.933 270.329 328.852 270.41C328.771 270.491 328.736 270.618 328.725 270.781V271.035C328.713 271.232 328.736 271.36 328.806 271.418C328.875 271.476 329.003 271.522 329.188 271.557L335.594 272.646C335.999 272.715 336.347 272.819 336.625 272.935C336.903 273.063 337.134 273.225 337.308 273.422C337.482 273.619 337.597 273.862 337.667 274.152C337.736 274.441 337.76 274.777 337.748 275.171L337.725 275.993C337.713 276.422 337.644 276.793 337.528 277.117C337.412 277.441 337.238 277.708 336.995 277.928C336.752 278.148 336.428 278.298 336.045 278.403C335.651 278.507 335.177 278.542 334.609 278.53L325.389 278.252L325.47 275.565L333.74 275.82C333.984 275.82 334.157 275.785 334.238 275.704C334.319 275.611 334.366 275.46 334.377 275.229V274.939C334.389 274.754 334.366 274.626 334.308 274.557C334.25 274.487 334.134 274.43 333.949 274.406L327.763 273.433C327.346 273.364 326.987 273.271 326.698 273.144C326.408 273.016 326.165 272.866 325.979 272.669C325.794 272.472 325.667 272.24 325.586 271.962C325.504 271.684 325.481 271.36 325.493 270.978L325.516 270.248C325.539 269.495 325.759 268.927 326.165 268.522C326.582 268.116 327.242 267.931 328.18 267.966L337.389 268.244C337.679 268.244 337.829 268.406 337.818 268.707L337.748 270.839L335.003 271.754L334.98 271.777Z" fill="#EBEFFF"/>
<path d="M338.871 278.669L339.184 268.313L342.114 268.406L341.802 278.762L338.871 278.669Z" fill="#EBEFFF"/>
<path d="M352.679 274.65C352.679 274.499 352.679 274.337 352.679 274.175C352.679 274.012 352.655 273.862 352.644 273.734V273.607L355.551 273.7L355.401 278.785C355.401 279.051 355.273 279.179 355.03 279.179L347.234 278.947C346.47 278.924 345.81 278.808 345.277 278.6C344.744 278.391 344.315 278.102 343.991 277.731C343.667 277.36 343.435 276.932 343.308 276.41C343.169 275.901 343.111 275.333 343.134 274.707L343.203 272.576C343.227 271.951 343.319 271.383 343.481 270.885C343.644 270.387 343.898 269.958 344.246 269.611C344.593 269.263 345.034 269.008 345.578 268.823C346.122 268.649 346.783 268.568 347.547 268.591L355.296 268.823C355.574 268.823 355.702 268.974 355.702 269.263L355.632 271.499L352.887 272.414H352.771L352.806 271.418C352.806 271.325 352.771 271.279 352.679 271.267L347.732 271.117C347.443 271.117 347.211 271.117 347.014 271.174C346.817 271.221 346.655 271.302 346.528 271.429C346.4 271.557 346.308 271.719 346.238 271.939C346.18 272.147 346.134 272.414 346.122 272.727L346.064 274.545C346.041 275.171 346.146 275.611 346.377 275.866C346.609 276.121 347.003 276.26 347.559 276.271L352.47 276.422C352.574 276.422 352.632 276.376 352.632 276.26L352.679 274.684V274.65Z" fill="#EBEFFF"/>
<path d="M361.736 268.997C361.956 268.997 362.107 269.043 362.199 269.113C362.292 269.182 362.361 269.286 362.442 269.437L366.149 277.001C366.207 277.117 366.3 277.175 366.416 277.175H366.566C366.717 277.175 366.798 277.117 366.798 276.955L367.029 269.159L369.694 269.24L369.392 279.19C369.392 279.468 369.253 279.596 368.987 279.584L364.771 279.457C364.574 279.457 364.423 279.422 364.331 279.353C364.238 279.295 364.145 279.179 364.064 279.017L360.218 271.464C360.161 271.348 360.079 271.29 359.952 271.29H359.813C359.662 271.29 359.581 271.36 359.581 271.51L359.35 279.295L356.686 279.214L356.987 269.275C356.987 268.985 357.126 268.858 357.392 268.858L361.747 268.985L361.736 268.997Z" fill="#EBEFFF"/>
<path style="mix-blend-mode:multiply" opacity="0.5" d="M352.643 217.218C351.74 227.991 348.461 235.497 344.963 240.559C340.145 247.509 334.932 249.884 334.932 249.884C329.72 247.613 325.202 244.787 321.31 241.671C304.792 228.466 299.464 210.163 299.059 208.657C306.032 225.5 316.271 235.705 324.032 241.451C330.287 246.096 334.932 247.845 334.932 247.845V242.459C333.693 241.995 332.488 241.462 331.341 240.883C317.673 233.991 310.491 219.627 307.132 210.337C307.121 210.314 307.121 210.302 307.109 210.279C305.29 205.252 304.584 201.719 304.584 201.719H307.063L306.252 203.456L306.217 203.514C306.611 205.275 307.063 206.966 307.572 208.576C307.584 208.623 307.596 208.669 307.619 208.704C315.264 232.821 334.932 240.594 334.932 240.594C348.6 230.504 348.334 214.484 348.334 214.484V212.283L350.894 213.048L352.643 217.218V217.218Z" fill="url(#paint33_linear_791_557)"/>
<path style="mix-blend-mode:multiply" opacity="0.3" d="M433.727 275.762C433.727 275.762 430.009 287.901 433.518 306.771C433.518 306.771 435.279 282.851 436.588 280.766C437.908 278.681 441.592 279.665 441.592 279.665C441.592 279.665 435.789 276.457 433.715 275.762H433.727Z" fill="url(#paint34_linear_791_557)"/>
<path style="mix-blend-mode:multiply" opacity="0.5" d="M397.679 341.754C394.436 338.916 390.544 334.178 386.663 326.417C378.902 310.907 376.678 300.551 376.319 298.744L378.161 295.906L380.628 272.043L382.933 270.665C382.933 270.665 391.169 261.572 397.424 247.845C397.517 248.053 397.621 248.378 397.737 248.841C398.999 253.811 401.594 272.379 404.003 279.005C405.509 283.141 407.884 285.423 409.633 286.604C409.633 286.604 395.374 307.756 394.679 322.85C394.065 336.588 397.123 341.059 397.679 341.754V341.754Z" fill="url(#paint35_linear_791_557)"/>
<path style="mix-blend-mode:multiply" opacity="0.5" d="M313.017 385.865C313.017 385.865 287.313 381.648 276.819 374.884C276.819 374.884 276.807 374.884 276.807 374.872C276.912 374.293 276.958 373.725 276.935 373.158C276.715 367.366 271.711 362.234 271.016 358.944C271.131 359.257 271.884 360.995 275.533 364.122C277.838 366.103 281.325 368.652 286.56 371.744C286.699 371.825 286.838 371.907 286.966 371.976C294.379 376.355 300.762 379.32 305.372 381.498C305.407 381.509 305.43 381.521 305.453 381.533C309.6 383.479 312.287 384.764 313.005 385.853C313.017 385.853 313.017 385.865 313.017 385.865Z" fill="url(#paint36_linear_791_557)"/>
<path style="mix-blend-mode:multiply" opacity="0.5" d="M368.003 365.396C367.864 366.393 365.593 368.582 364.945 370.968C364.945 370.968 355.516 380.953 320.615 377.884C320.847 376.899 328.179 378.324 345.183 374.918C361.667 371.617 367.644 365.756 368.003 365.396Z" fill="url(#paint37_linear_791_557)"/>
<g style="mix-blend-mode:multiply" opacity="0.5">
<path d="M373.806 230.296L351.497 237.524L344.964 240.559H344.929L340.678 240.582H334.932L331.342 240.883L329.442 241.022L324.033 241.451L321.31 241.671L294.553 231.987L289.769 230.261L267.761 222.291C268.409 222.036 269.07 221.782 269.765 221.504C284.533 215.654 299.024 208.553 299.024 208.553L304.584 201.719H307.063C309.275 196.877 310.746 192.347 311.696 188.78L313.167 182.165C313.272 181.528 313.318 181.181 313.318 181.181L321.195 185.339L347.755 206.584C347.732 208.032 347.778 209.329 347.859 210.43L348.242 213.105C348.311 212.584 348.334 212.283 348.334 212.283L350.894 213.047L352.643 217.218C352.643 217.218 355.609 221.828 367.354 226.994C369.381 227.886 371.559 229.01 373.806 230.296V230.296Z" fill="#7A4AC0"/>
</g>
<path d="M356.813 209.943C356.813 209.943 346.411 212.283 334.932 206.723C323.453 201.163 313.804 184.772 313.213 180.683C312.634 176.582 317.603 165.902 317.603 157.562C317.603 149.221 313.514 134.881 320.383 127.12C327.264 119.37 358.863 118.2 369.114 128.151C369.114 128.151 372.288 136.12 372.288 140.626C372.288 141.715 372.091 143.314 371.801 145.155C371.709 145.839 371.581 146.569 371.466 147.322C370.55 152.778 369.288 159.438 369.879 162.357C370.087 163.377 370.411 164.315 370.794 165.207C372.056 168.138 373.933 170.466 374.269 172.991C374.709 176.292 370.284 199.703 356.813 209.943Z" fill="url(#paint38_linear_791_557)"/>
<path d="M317.522 155.21C317.522 155.21 314.684 148.086 307.549 147.982C307.549 147.982 303.379 149.627 302.719 152.812C302.719 152.812 304.259 164.338 306.008 169.713C307.757 175.088 314.198 174.312 314.198 174.312C314.198 174.312 319.804 165.74 317.511 155.21H317.522Z" fill="url(#paint39_linear_791_557)"/>
<path d="M344.929 178.667C344.929 178.667 347.303 178.482 348.322 179.246C349.342 180.011 353.083 183.636 357.798 184.621C362.512 185.606 365.686 181.586 366.682 181.389C367.69 181.181 368.79 182.606 368.79 182.606C368.79 182.606 368.362 180.961 365.894 180.219C365.894 180.219 364.898 184.007 358.064 182.71C351.23 181.412 348.311 178.377 348.311 178.377L347.963 177.752C347.963 177.752 346.041 178.157 344.917 178.667H344.929Z" fill="url(#paint40_linear_791_557)"/>
<path style="mix-blend-mode:multiply" opacity="0.6" d="M334.84 143.233L334.933 142.503C334.933 142.503 341.755 130.525 355.25 130.201C368.744 129.877 371.791 138.333 371.791 138.333L374.293 134.533L368.594 122.961L328.932 122.301L319.272 130.097L318.056 149.175L322.353 174.358L332.801 179.93L335.755 177.312C334.666 168.879 328.4 161.176 328.4 161.176L332.975 158.002C332.975 158.002 344.72 163.689 351.497 161.987C351.497 161.987 356.605 147.09 356.304 136.062C356.304 136.062 338.906 138.634 334.84 143.256V143.233Z" fill="url(#paint41_linear_791_557)"/>
<path d="M334.237 144.113C334.237 144.113 334.898 139.804 342.172 138.078C350.28 136.155 356.871 134.533 356.871 134.533C356.871 134.533 355.435 139.259 352.736 141.032C352.736 141.032 344.153 140.719 339.82 141.704C335.477 142.688 334.249 144.113 334.249 144.113H334.237Z" fill="#38368E"/>
<path d="M371.802 138.333C371.802 138.333 367.69 141.506 364.887 149.082C364.887 149.082 367.574 145.572 370.041 145.63C371.732 145.665 371.466 147.345 371.466 147.345C371.466 147.345 373.146 142.815 371.802 138.344V138.333Z" fill="#38368E"/>
<path d="M336.959 156.311C336.959 156.311 337.399 147.206 346.284 144.901C346.284 144.901 349.469 149.013 349.793 153.681C349.793 153.681 345.079 152.801 336.959 156.311Z" fill="url(#paint42_linear_791_557)"/>
<path d="M362.419 159.936C362.419 159.936 363.137 152.685 367.307 150.009C367.307 150.009 370.145 152.14 369.855 158.21C369.855 158.21 367.365 157.307 362.431 159.948L362.419 159.936Z" fill="url(#paint43_linear_791_557)"/>
<path d="M336.959 156.311C336.959 156.311 339.843 159.855 347.928 160.55C347.928 160.55 349.469 158.21 349.318 153.612C349.318 153.612 341.893 152.905 336.947 156.299L336.959 156.311Z" fill="#FFEBED"/>
<path d="M362.419 159.936V161.002C362.419 161.002 363.658 163.597 368.13 164.037C368.13 164.037 369.566 161.801 369.693 158.164C369.693 158.164 366.855 157.457 362.431 159.948L362.419 159.936Z" fill="#FFEBED"/>
<path d="M345.6 153.438C345.6 153.438 343.55 155.928 343.735 159.867C343.735 159.867 346.423 160.504 347.929 160.562C347.929 160.562 349.701 158.094 349.319 153.623C349.319 153.623 346.967 153.113 345.6 153.438Z" fill="#7F9EC9"/>
<path d="M366.647 158.28C366.647 158.28 365.489 159.519 365.269 163.33C365.269 163.33 366.855 164.025 368.118 164.025C368.118 164.025 369.74 161.72 369.682 158.152C369.682 158.152 368.547 157.724 366.647 158.28Z" fill="#7F9EC9"/>
<path d="M344.929 160.133C344.929 160.133 344.199 155.21 347.014 153.333L349.319 153.623C349.319 153.623 350.083 157.515 347.929 160.562C347.929 160.562 345.635 160.307 344.929 160.133V160.133Z" fill="#38368E"/>
<path d="M367.667 158.071C367.667 158.071 366.624 160.261 366.138 163.666C366.138 163.666 366.937 163.991 368.118 164.037C368.118 164.037 369.694 162.102 369.682 158.164C369.682 158.164 368.478 157.84 367.667 158.071Z" fill="#38368E"/>
<path d="M336.959 156.311C336.959 156.311 342.334 153.183 351.496 154.967L349.793 153.681C349.793 153.681 343.26 151.654 336.959 156.311Z" fill="#131163"/>
<path d="M362.419 159.936C362.419 159.936 366.728 157.643 371.755 158.859L369.682 157.33C369.682 157.33 366.311 156.809 362.419 159.936Z" fill="#131163"/>
<path d="M342.773 156.31C342.773 156.31 344.233 155.986 345.553 157.318C345.553 157.318 343.746 157.851 342.773 156.31Z" fill="white"/>
<path d="M364.389 160.562C364.389 160.562 366.682 160.122 367.47 161.164C367.47 161.164 366.242 162.01 364.389 160.562Z" fill="white"/>
<path d="M337.492 156.843C337.492 156.843 341.674 160.979 348.369 161.963L348.543 159.531L347.929 160.562C347.929 160.562 341.488 160.179 337.492 156.855V156.843Z" fill="#C6659C"/>
<path d="M362.419 161.002C362.419 161.002 363.16 163.678 368.604 164.882L368.431 163.574L368.13 164.037C368.13 164.037 364.261 163.539 362.419 161.002Z" fill="#C6659C"/>
<path d="M351.496 171.682C351.496 171.682 353.523 171.242 357.253 171.682C360.983 172.122 365.176 173.142 367.469 171.682C367.469 171.682 364.423 174.729 361.782 175.192C359.141 175.655 355.121 173.339 355.121 173.339L353.361 173.373C353.361 173.373 352.005 172.713 351.473 171.682H351.496Z" fill="#CB5F7D"/>
<path d="M353.639 173.362C353.639 173.362 354.554 172.771 355.318 172.922C356.083 173.072 356.87 174.184 356.87 174.184C356.87 174.184 355.249 173.327 353.639 173.362V173.362Z" fill="#9F4A8B"/>
<path d="M367.469 171.682C368.442 170.732 363.392 161.743 360.982 161.407C358.573 161.071 356.303 171.485 356.303 171.485C356.303 171.485 359.662 171.96 362.917 172.389C366.172 172.829 367.469 171.682 367.469 171.682V171.682Z" fill="#FFBCAF"/>
<path style="mix-blend-mode:multiply" opacity="0.6" d="M371.083 143.371C369.717 143.198 364.886 149.071 364.886 149.071C364.886 149.071 361.817 158.581 362.419 161.396C363.021 164.222 370.481 165.716 370.481 165.716L370.794 165.218C370.412 164.315 370.087 163.377 369.879 162.357C369.288 159.438 370.551 152.777 371.466 147.322C371.466 147.322 371.767 146.198 371.802 145.155C371.836 144.275 371.709 143.441 371.083 143.371V143.371Z" fill="url(#paint44_linear_791_557)"/>
<path d="M370.863 181.992C369.323 178.771 370.273 177.092 356.894 175.343C337.955 172.852 336.333 178.632 333.113 177.752C332.997 177.717 332.858 177.671 332.731 177.613C329.244 176.258 321.032 168.184 320.823 157.307C320.603 146.001 328.179 137.985 328.179 137.985C325.433 135.68 324.333 128.996 327.298 126.135C330.264 123.285 335.314 123.946 347.708 125.255C360.114 126.575 360.114 125.811 360.114 125.811C364.052 126.818 366.311 130.514 366.948 131.695C367.076 131.927 367.133 132.066 367.133 132.066L368.674 130.641C372.844 136.676 372.08 143.256 372.08 143.256C372.08 143.256 378.879 129.425 378.103 127.467C376.69 123.853 372.763 118.582 372.52 118.246H372.508C372.508 118.246 371.408 107.705 368.118 107.705C364.828 107.705 350.778 110.879 350.778 110.879C352.318 107.265 352.098 103.095 352.098 103.095L352.04 103.153C347.453 107.265 342.971 107.717 336.623 110.659C333.426 112.153 331.92 113.532 330.681 114.968L330.252 115.478L329.8 116.022C329.36 116.578 328.908 117.146 328.364 117.725C328.341 117.76 328.306 117.783 328.294 117.795L328.26 117.829C327.75 118.385 327.148 118.953 326.418 119.555C322.248 122.949 313.074 125.22 311.974 128.811C310.873 132.39 313.364 137.29 314.684 142.341C315.993 147.391 315.391 151.851 315.391 151.851C315.391 151.851 319.758 157.48 318.31 165.717C317.024 173.095 314.209 174.3 314.209 174.3C312.228 178.366 313.167 182.165 313.167 182.165C317.221 198.29 333.993 207.893 333.993 207.893C348.913 213.453 358.724 211.032 358.724 211.032C369.578 203.943 373.296 180.52 373.458 179.432C373.273 179.721 371.257 182.849 370.852 181.992H370.863ZM364.168 196.923C361.539 196.483 360.983 189.822 360.114 188.942C359.234 188.073 354.473 188.432 354.473 188.432C354.473 188.432 350.083 193.413 348.334 193.552C346.573 193.703 337.214 189.892 339.241 184.193C341.256 178.482 348.334 177.752 348.334 177.752C348.334 177.752 351.994 180.822 357.473 181.181C362.963 181.54 364.944 180.532 365.593 180.242C366.253 179.941 369.786 181.551 369.693 186.532C369.635 189.996 366.809 197.363 364.168 196.923Z" fill="url(#paint45_linear_791_557)"/>
<path d="M363.485 163.4C363.485 163.4 368.211 169.273 367.759 171.485C367.261 173.906 361.782 175.192 361.782 175.192C361.782 175.192 366.172 173.675 367.076 171.485C367.076 171.485 365.952 167.037 363.473 163.4H363.485Z" fill="#D2726C"/>
<path style="mix-blend-mode:multiply" opacity="0.6" d="M372.079 143.256C372.079 143.256 372.844 136.676 368.674 130.641C372.021 124.664 372.508 118.235 372.508 118.235H372.52C373.655 121.038 374.303 126.471 374.303 126.471L378.103 127.467C378.879 129.425 372.079 143.256 372.079 143.256Z" fill="url(#paint46_linear_791_557)"/>
<path style="mix-blend-mode:multiply" opacity="0.6" d="M366.948 131.695C366.311 130.514 364.052 126.818 360.114 125.811C360.114 125.811 360.114 126.575 347.708 125.255C335.314 123.946 330.264 123.285 327.298 126.135C324.333 128.996 325.434 135.68 328.179 137.985C328.179 137.985 320.603 146.001 320.823 157.307C321.032 168.184 329.244 176.258 332.731 177.613L332.569 178.818C332.569 178.818 333.183 203.723 339.241 205.703C345.287 207.673 357.844 206.653 359.014 207.823C360.184 208.993 358.851 210.847 358.736 211.02C358.736 211.02 348.925 213.453 334.005 207.893C334.005 207.893 317.233 198.29 313.178 182.165C313.178 182.165 312.24 178.366 314.221 174.3C314.221 174.3 317.036 173.095 318.321 165.717C319.769 157.48 315.402 151.851 315.402 151.851C315.402 151.851 316.005 147.391 314.696 142.341C313.375 137.29 310.885 132.39 311.985 128.811C319.005 129.911 323.615 126.251 323.615 126.251C323.615 126.251 324.843 124.548 330.275 123.668C335.708 122.787 357.542 124.988 357.542 124.988C357.542 124.988 355.353 123.17 350.743 121.965C346.388 120.818 331.515 122.15 329.916 122.278C331.619 121.976 348.484 119.08 350.407 119.66C352.446 120.262 359.743 123.61 359.743 123.61C359.083 120.262 352.55 112.2 352.55 112.2C352.55 112.2 343.33 112.362 337.295 113.625C331.909 114.748 328.955 117.216 328.376 117.725L329.812 116.022L330.264 115.478L330.692 114.968L332.801 114.609L343.388 110.335C346.944 108.435 351.496 103.732 352.052 103.153L352.11 103.095C352.11 103.095 352.33 107.265 350.789 110.879C359.732 109.779 362.755 110.335 362.755 110.335C366.821 116.092 366.96 131.695 366.96 131.695H366.948Z" fill="url(#paint47_linear_791_557)"/>
<path style="mix-blend-mode:multiply" opacity="0.5" d="M333.994 207.893C333.994 207.893 339.473 206.595 347.744 206.92C356.014 207.256 360.775 207.29 358.725 211.032C358.725 211.032 348.334 213.383 333.994 207.893Z" fill="url(#paint48_linear_791_557)"/>
<path d="M362.744 110.335C362.744 110.335 367.771 108.377 369.763 108.69C369.763 108.69 368.976 107.636 368.153 107.416C367.331 107.196 350.778 110.868 350.778 110.868C350.778 110.868 361.099 109.663 362.744 110.323V110.335Z" fill="url(#paint49_linear_791_557)"/>
<path d="M352.538 112.2C352.538 112.2 352.144 117.679 350.395 119.66L329.904 122.278L323.893 121.212C323.893 121.212 326.221 120.216 328.781 117.239C331.341 114.25 344.696 111.32 352.55 112.2H352.538Z" fill="url(#paint50_linear_791_557)"/>
<path d="M372.509 118.235C372.509 118.235 374.177 123.621 374.304 126.471L378.104 127.467C378.104 127.467 376.945 123.39 372.509 118.235Z" fill="url(#paint51_linear_791_557)"/>
<path style="mix-blend-mode:multiply" opacity="0.8" d="M316.677 164.871C316.677 164.871 315.241 157.955 311.708 154.538C308.175 151.121 304.155 152.21 304.155 152.21C304.155 152.21 305.256 165.033 306.402 168.161C307.549 171.288 309.31 172.111 309.31 172.111C309.31 172.111 306.843 169.945 306.507 165.705C306.171 161.465 306.067 155.488 307.005 154.77C307.943 154.052 311.708 156.843 311.708 156.843C311.708 156.843 310.515 158.303 309.808 162.079C309.09 165.855 311.731 168.601 312.715 168.543C313.7 168.485 312.657 164.176 312.82 162.925C312.982 161.674 315.183 161.952 316.677 164.859V164.871Z" fill="url(#paint52_linear_791_557)"/>
<path style="mix-blend-mode:multiply" opacity="0.8" d="M313.144 156.287C313.144 156.287 309.286 158.824 309.703 164.014C310.12 169.215 313.086 168.983 313.097 167.894C313.097 166.805 312.53 163.991 312.831 162.404C313.132 160.817 315.692 161.535 315.692 161.535C315.692 161.535 314.001 157.411 313.132 156.287H313.144Z" fill="url(#paint53_linear_791_557)"/>
<path d="M373.47 179.432C373.47 179.432 368.675 201.29 358.725 211.032C358.725 211.032 370.076 206.572 373.47 179.432V179.432Z" fill="#34C7FF"/>
<path d="M368.153 107.427C368.153 107.427 370.678 109.396 371.165 116.219C371.64 123.054 368.686 130.641 368.686 130.641C368.686 130.641 372.485 124.965 372.856 118.745C373.227 112.524 370.169 108.215 368.165 107.427H368.153Z" fill="#34C7FF"/>
<path d="M337.527 121.733C337.527 121.733 343.377 123.725 349.794 124.293C356.211 124.861 357.532 124.988 357.532 124.988C357.532 124.988 354.949 122.486 349.458 121.733C343.968 120.98 337.527 121.733 337.527 121.733V121.733Z" fill="url(#paint54_linear_791_557)"/>
<path d="M365.79 179.907C365.79 179.907 368.594 179.907 369.694 183.416C370.574 186.22 370.818 188.629 370.818 188.629L371.814 184.783C371.814 184.783 370.516 179.907 369.173 178.806C368.2 178.018 366.532 177.219 365.744 177.405L365.802 179.907H365.79Z" fill="url(#paint55_linear_791_557)"/>
<path d="M358.25 176.397L358.725 180.567C358.725 180.567 362.13 180.845 364.389 179.907L364.795 177.381C364.795 177.381 360.451 176.281 358.25 176.397V176.397Z" fill="url(#paint56_linear_791_557)"/>
<path d="M373.807 230.296C373.807 230.296 393.765 244.868 396.348 249.884C398.942 254.899 399.985 270.619 403.483 277.43C403.483 277.43 401.085 266.298 399.406 257.575C397.726 248.853 398.131 248.725 397.193 246.582C396.255 244.439 381.359 234.107 373.795 230.296H373.807Z" fill="#34C7FF"/>
<path d="M370.227 311.428C370.227 311.428 360.613 352.597 361.041 355.377C361.481 358.157 367.702 363.833 367.991 365.385C367.991 365.385 363.23 371.756 363.451 373.169C363.671 374.582 371.791 383.502 371.571 386.27C371.513 387.07 366.242 395.757 366.242 395.757C366.242 395.757 372.196 387.22 372.486 385.853C372.775 384.487 365.188 373.077 364.968 371.918C364.389 368.918 368.756 366.706 368.895 364.736C369.045 362.755 362.999 357.937 362.941 354.716C362.895 351.496 370.204 311.417 370.204 311.417L370.227 311.428Z" fill="#34C7FF"/>
<path d="M240.354 220.843C240.354 220.843 234.98 219.697 232.744 215.005C230.509 210.314 231.968 203.514 231.968 203.514C231.968 203.514 236.184 211.6 238.281 214.357C240.378 217.113 240.945 220.264 240.354 220.843V220.843Z" fill="#FFBCAF"/>
</g>
<path d="M179.657 248.598C175.243 240.999 167.436 237.872 167.436 237.872L164.714 239.146L170.842 250.266C170.019 254.541 167.089 256.892 167.089 256.892V256.869C167.089 256.869 163.394 257.61 159.594 255.49L154.996 243.652L152.274 244.926C152.274 244.926 149.667 252.919 152.656 261.19C152.656 261.19 153.814 263.865 154.023 264.109C155.1 265.371 157.915 266.819 163.359 266.483L182.124 302.289C180.56 304.976 180.294 308.347 181.707 311.359C184 316.27 189.838 318.39 194.75 316.096C199.661 313.803 201.781 307.965 199.487 303.053C198.074 300.03 195.317 298.072 192.259 297.551L176.842 260.193C180.514 256.324 181.29 253.278 181.012 251.517C180.954 251.147 179.645 248.598 179.645 248.598H179.657ZM195.097 310.351L190.128 312.679L185.634 309.54L186.108 304.073L191.078 301.744L195.572 304.883L195.097 310.351Z" fill="url(#paint57_linear_791_557)"/>
<path d="M181.012 251.517C176.599 243.918 168.792 240.791 168.792 240.791L166.07 242.065L172.197 253.185C171.375 257.46 168.444 259.811 168.444 259.811V259.788C168.444 259.788 164.749 260.529 160.95 258.41L156.351 246.571L153.629 247.845C153.629 247.845 151.023 255.838 154.011 264.109C154.011 264.109 158.251 269.796 164.703 269.403L183.468 305.208C181.904 307.895 181.638 311.266 183.051 314.278C185.344 319.189 191.182 321.309 196.094 319.016C201.005 316.722 203.125 310.884 200.831 305.972C199.418 302.949 196.661 300.991 193.603 300.47L178.186 263.113C182.634 258.421 180.989 251.517 180.989 251.517H181.012ZM196.453 313.27L191.483 315.598L186.989 312.459L187.464 306.992L192.433 304.663L196.928 307.803L196.453 313.27Z" fill="url(#paint58_linear_791_557)"/>
<path d="M154.982 243.67L152.264 244.939L153.627 247.857L156.345 246.587L154.982 243.67Z" fill="#E5E2FF"/>
<path d="M167.415 237.883L164.697 239.153L166.06 242.07L168.778 240.8L167.415 237.883Z" fill="#E5E2FF"/>
<path d="M195.091 310.365L190.116 312.688L191.479 315.606L196.454 313.282L195.091 310.365Z" fill="#E5E2FF"/>
<path d="M168.723 272.055L183.885 301.188C187.87 301.374 190.001 298.327 190.001 298.327L177.665 267.873C172.128 267.665 168.723 272.055 168.723 272.055V272.055ZM188.831 298.57C188.391 298.953 187.719 299.462 186.874 299.856C186.202 300.169 185.495 300.377 184.777 300.482L169.591 271.951C170.333 271.291 171.607 270.318 173.24 269.553C174.468 268.985 175.719 268.615 176.993 268.441L188.831 298.57Z" fill="url(#paint59_linear_791_557)"/>
<path d="M188.831 298.57L190.001 298.327C190.001 298.327 188.263 301.408 183.885 301.188L184.777 300.481C184.777 300.481 186.931 300.226 188.831 298.57V298.57Z" fill="#E5E2FF"/>
<path style="mix-blend-mode:multiply" opacity="0.62" d="M168.723 272.055L169.591 271.939C169.591 271.939 172.186 269.252 176.993 268.441L177.653 267.885C177.653 267.885 175.719 267.549 172.707 268.951C169.696 270.352 168.711 272.055 168.711 272.055H168.723Z" fill="url(#paint60_linear_791_557)"/>
<path style="mix-blend-mode:multiply" opacity="0.62" d="M164.703 269.391C164.703 269.391 171.989 268.094 178.209 263.101L180.178 267.874C180.178 267.874 177.943 265.661 173.032 267.665C167.298 270.005 167.611 274.615 167.611 274.615L164.703 269.379V269.391Z" fill="url(#paint61_linear_791_557)"/>
<path style="mix-blend-mode:screen" opacity="0.5" d="M180.178 267.885C178.776 266.877 177.178 266.854 177.178 266.854L191.854 302.3L193.626 300.47L180.189 267.897L180.178 267.885Z" fill="url(#paint62_linear_791_557)"/>
<path d="M180.178 267.885C180.178 267.885 178.637 272.623 183.062 274.87L180.178 267.885Z" fill="white"/>
<path opacity="0.6" d="M407.339 189.521L411.069 295.86C411.22 300.076 414.683 303.424 418.9 303.424H602.067C606.318 303.424 609.793 300.03 609.897 295.779L612.457 188.201C612.561 183.776 608.994 180.15 604.569 180.173L415.112 181.413C410.699 181.447 407.177 185.108 407.328 189.521H407.339Z" fill="#36D1F7"/>
<path d="M602.067 303.713H418.899C414.498 303.713 410.93 300.273 410.779 295.871L407.05 189.533C406.968 187.32 407.768 185.224 409.308 183.625C410.837 182.027 412.899 181.135 415.123 181.123L604.592 179.884C606.793 179.884 608.889 180.729 610.441 182.316C611.993 183.903 612.827 185.988 612.77 188.201L610.21 295.779C610.105 300.227 606.538 303.713 602.09 303.713H602.067ZM604.626 180.463H604.58L415.112 181.702C413.05 181.714 411.138 182.536 409.714 184.019C408.289 185.502 407.548 187.448 407.617 189.51L411.347 295.848C411.486 299.937 414.799 303.134 418.888 303.134H602.055C606.121 303.134 609.503 299.833 609.596 295.767L612.156 188.189C612.202 186.127 611.437 184.193 609.99 182.722C608.553 181.262 606.654 180.463 604.615 180.463H604.626Z" fill="#744CA2"/>
<path style="mix-blend-mode:multiply" opacity="0.6" d="M407.606 194.942H612.237L612.561 189.336C612.851 184.378 608.889 180.208 603.92 180.243L414.532 181.737C410.583 181.772 407.409 185.027 407.49 188.977L407.606 194.942V194.942Z" fill="url(#paint63_linear_791_557)"/>
<path style="mix-blend-mode:multiply" opacity="0.3" d="M417.903 203.526V265.059H480.534V203.202L417.903 203.526Z" fill="url(#paint64_linear_791_557)"/>
<path style="mix-blend-mode:multiply" opacity="0.3" d="M568.312 207.65H541.068V234.895H568.312V207.65Z" fill="url(#paint65_linear_791_557)"/>
<path style="mix-blend-mode:multiply" opacity="0.3" d="M600.456 207.65H573.212V234.895H600.456V207.65Z" fill="url(#paint66_linear_791_557)"/>
<path style="mix-blend-mode:multiply" opacity="0.3" d="M535.625 207.65H508.381V234.895H535.625V207.65Z" fill="url(#paint67_linear_791_557)"/>
<g style="mix-blend-mode:multiply">
<path d="M600.457 250.787H530.783V257.309H600.457V250.787Z" fill="#D1D4FB"/>
</g>
<g style="mix-blend-mode:multiply">
<path d="M600.468 260.715H513.361V262.73H600.468V260.715Z" fill="#D1D4FB"/>
</g>
<g style="mix-blend-mode:multiply">
<path d="M530.852 238.37H514.184V240.385H530.852V238.37Z" fill="#D1D4FB"/>
</g>
<g style="mix-blend-mode:multiply">
<path d="M563.031 238.37H546.362V240.385H563.031V238.37Z" fill="#D1D4FB"/>
</g>
<g style="mix-blend-mode:multiply">
<path d="M595.174 238.37H578.506V240.385H595.174V238.37Z" fill="#D1D4FB"/>
</g>
<g style="mix-blend-mode:multiply">
<path d="M536.401 264.004H508.381V266.02H536.401V264.004Z" fill="#D1D4FB"/>
</g>
<g style="mix-blend-mode:multiply">
<path d="M600.468 267.248H513.361V269.264H600.468V267.248Z" fill="#D1D4FB"/>
</g>
<g style="mix-blend-mode:multiply">
<path d="M600.457 270.491H508.381V272.507H600.457V270.491Z" fill="#D1D4FB"/>
</g>
<g style="mix-blend-mode:multiply">
<path d="M600.457 273.735H508.381V275.75H600.457V273.735Z" fill="#D1D4FB"/>
</g>
<g style="mix-blend-mode:multiply">
<path d="M600.468 286.847H513.361V288.863H600.468V286.847Z" fill="#D1D4FB"/>
</g>
<g style="mix-blend-mode:multiply">
<path d="M600.457 290.091H508.381V292.107H600.457V290.091Z" fill="#D1D4FB"/>
</g>
<g style="mix-blend-mode:multiply">
<path d="M600.457 293.334H508.381V295.35H600.457V293.334Z" fill="#D1D4FB"/>
</g>
<g style="mix-blend-mode:multiply">
<path d="M596.762 276.978H508.381V278.994H596.762V276.978Z" fill="#D1D4FB"/>
</g>
<g style="mix-blend-mode:multiply">
<path d="M600.468 280.222H513.361V282.237H600.468V280.222Z" fill="#D1D4FB"/>
</g>
<g style="mix-blend-mode:multiply">
<path d="M582.989 283.465H508.381V285.481H582.989V283.465Z" fill="#D1D4FB"/>
</g>
<g style="mix-blend-mode:soft-light">
<g style="mix-blend-mode:soft-light">
<path d="M435.452 252.722C425.629 252.722 417.637 244.729 417.637 234.906C417.637 225.083 425.629 217.09 435.452 217.09C445.275 217.09 453.267 225.083 453.267 234.906C453.267 244.729 445.275 252.722 435.452 252.722ZM435.452 218.237C426.266 218.237 418.795 225.709 418.795 234.894C418.795 244.08 426.266 251.552 435.452 251.552C444.637 251.552 452.109 244.08 452.109 234.894C452.109 225.709 444.637 218.237 435.452 218.237Z" fill="#E0FFFF"/>
</g>
</g>
<path d="M435.452 244.578C440.8 244.578 445.136 240.243 445.136 234.894C445.136 229.546 440.8 225.21 435.452 225.21C430.104 225.21 425.769 229.546 425.769 234.894C425.769 240.243 430.104 244.578 435.452 244.578Z" fill="white"/>
<g style="mix-blend-mode:soft-light">
<g style="mix-blend-mode:soft-light">
<path d="M480.534 221.017C470.711 221.017 462.719 213.024 462.719 203.202C462.719 193.379 470.711 185.386 480.534 185.386C490.357 185.386 498.349 193.379 498.349 203.202C498.349 213.024 490.357 221.017 480.534 221.017ZM480.534 186.533C471.348 186.533 463.877 194.004 463.877 203.19C463.877 212.376 471.348 219.847 480.534 219.847C489.719 219.847 497.191 212.376 497.191 203.19C497.191 194.004 489.719 186.533 480.534 186.533Z" fill="#E0FFFF"/>
</g>
</g>
<path d="M489.527 204.61C490.309 199.637 486.912 194.971 481.938 194.188C476.965 193.406 472.299 196.803 471.516 201.777C470.734 206.751 474.131 211.417 479.105 212.199C484.078 212.982 488.745 209.584 489.527 204.61Z" fill="white"/>
<g style="mix-blend-mode:soft-light">
<g style="mix-blend-mode:soft-light">
<path d="M414.775 186.591L416.084 184.621L423.127 190.784L422.038 192.29L414.775 186.591Z" fill="white"/>
</g>
<g style="mix-blend-mode:soft-light">
<path d="M423.301 186.591L422.004 184.621L414.961 190.784L416.038 192.29L423.301 186.591Z" fill="white"/>
</g>
</g>
<path d="M607.291 185.953H544.231V189.116H607.291V185.953Z" fill="white"/>
<path d="M212.38 140.302V167.674L245.114 167.952L245.555 139.433L212.38 140.302Z" fill="url(#paint68_linear_791_557)"/>
<path d="M245.554 139.433L247.686 143.024L246.62 167.917L245.114 167.952L245.554 139.433Z" fill="url(#paint69_linear_791_557)"/>
<path d="M218.229 149.545L221.253 145.155L237.585 158.87L235.083 162.218L218.229 149.545Z" fill="white"/>
<path d="M238.014 149.545L234.991 145.155L218.646 158.87L221.148 162.218L238.014 149.545Z" fill="white"/>
<path opacity="0.81" d="M245.187 420.952H133.188C128.207 420.952 124.13 416.967 124.014 411.986L121.917 320.116C121.802 314.973 125.937 310.733 131.091 310.733H247.701C252.867 310.733 257.014 314.996 256.875 320.162L254.361 412.033C254.222 417.002 250.156 420.952 245.187 420.952V420.952Z" fill="url(#paint70_linear_791_557)"/>
<path d="M245.187 421.242H133.188C128.091 421.242 123.84 417.095 123.724 411.998L121.627 320.128C121.57 317.556 122.531 315.135 124.326 313.293C126.122 311.463 128.52 310.444 131.091 310.444H247.7C250.272 310.444 252.681 311.463 254.477 313.305C256.272 315.147 257.222 317.591 257.152 320.162L254.627 412.033C254.488 417.199 250.33 421.23 245.164 421.23L245.187 421.242ZM131.103 311.034C128.693 311.034 126.435 311.984 124.755 313.71C123.064 315.436 122.172 317.718 122.23 320.128L124.326 411.998C124.431 416.782 128.415 420.674 133.211 420.674H245.21C250.052 420.674 253.955 416.875 254.094 412.033L256.62 320.162C256.689 317.741 255.797 315.459 254.106 313.722C252.415 311.984 250.156 311.034 247.735 311.034H131.126H131.103Z" fill="#473DA2"/>
<path d="M211.016 329.533H152.115V332.059H211.016V329.533Z" fill="white"/>
<path d="M181.56 335.661H152.115V338.186H181.56V335.661Z" fill="white"/>
<path d="M181.56 340.793H152.115V343.318H181.56V340.793Z" fill="white"/>
<path d="M208.306 340.793H184.873V343.318H208.306V340.793Z" fill="white"/>
<path d="M199.595 345.913H152.115V348.438H199.595V345.913Z" fill="white"/>
<path d="M169.015 351.033H152.115V353.558H169.015V351.033Z" fill="white"/>
<path d="M201.715 366.393H172.49V368.918H201.715V366.393Z" fill="white"/>
<path d="M205.086 356.153H152.115V358.678H205.086V356.153Z" fill="white"/>
<path d="M192.865 361.273H152.115V363.798H192.865V361.273Z" fill="white"/>
<path d="M171.286 366.393H152.115V368.918H171.286V366.393Z" fill="white"/>
<path d="M181.56 371.513H152.115V374.038H181.56V371.513Z" fill="white"/>
<path d="M160.56 376.633H152.115V379.158H160.56V376.633Z" fill="white"/>
<path d="M194.695 376.633H164.046V379.158H194.695V376.633Z" fill="white"/>
<path d="M201.715 381.602H172.49V384.127H201.715V381.602Z" fill="white"/>
<path d="M171.286 381.602H152.115V384.128H171.286V381.602Z" fill="white"/>
<path d="M181.56 386.722H152.115V389.247H181.56V386.722Z" fill="white"/>
<path d="M160.56 391.854H152.115V394.379H160.56V391.854Z" fill="white"/>
<path d="M194.695 391.854H164.046V394.379H194.695V391.854Z" fill="white"/>
<path opacity="0.73" d="M534.472 431.98H477.945C473.393 431.98 469.663 428.377 469.513 423.825L468.262 386.641C468.1 381.869 471.922 377.919 476.694 377.919H535.607C540.368 377.919 544.191 381.857 544.04 386.618L542.905 423.802C542.766 428.354 539.036 431.98 534.472 431.98V431.98Z" fill="url(#paint71_linear_791_557)"/>
<path d="M534.472 432.269H477.945C473.219 432.269 469.385 428.563 469.223 423.837L467.972 386.653C467.891 384.267 468.76 382.008 470.416 380.293C472.072 378.579 474.308 377.629 476.694 377.629H535.607C537.993 377.629 540.217 378.567 541.874 380.282C543.53 381.996 544.41 384.243 544.329 386.63L543.194 423.813C543.044 428.551 539.221 432.269 534.472 432.269V432.269ZM476.694 378.22C474.47 378.22 472.385 379.1 470.833 380.699C469.281 382.297 468.47 384.406 468.551 386.641L469.802 423.825C469.953 428.238 473.532 431.702 477.945 431.702H534.472C538.897 431.702 542.476 428.227 542.615 423.802L543.75 386.618C543.82 384.394 543.009 382.297 541.457 380.699C539.904 379.1 537.831 378.22 535.607 378.22H476.694V378.22Z" fill="#953DA2"/>
<path d="M493.016 391.286L479.081 407.446L493.282 419.493V413.272L485.07 406.16L492.692 397.542L493.016 391.286Z" fill="white"/>
<path d="M517.514 392.016L531.46 408.164L517.259 420.211V414.002L525.471 406.89L516.332 397.217L517.514 392.016Z" fill="white"/>
<path d="M496.062 419.493L508.201 392.734H513.912L500.15 419.493H496.062Z" fill="white"/>
<path opacity="0.73" d="M307.858 99.1683H237.141C231.454 99.1683 226.786 94.6622 226.589 88.9746L225.014 42.466C224.817 36.5004 229.589 31.5542 235.566 31.5542H309.271C315.225 31.5542 319.997 36.4773 319.823 42.4313L318.399 88.9399C318.225 94.6391 313.557 99.1683 307.846 99.1683H307.858Z" fill="url(#paint72_linear_791_557)"/>
<path d="M307.857 99.4579H237.141C231.257 99.4579 226.507 94.8591 226.299 88.9862L224.724 42.4776C224.619 39.5122 225.708 36.7089 227.77 34.5775C229.832 32.4461 232.6 31.2761 235.566 31.2761H309.27C312.224 31.2761 314.993 32.4461 317.054 34.5659C319.116 36.6857 320.205 39.489 320.112 42.4428L318.688 88.9514C318.502 94.8475 313.742 99.4694 307.846 99.4694L307.857 99.4579ZM235.577 31.8437C232.774 31.8437 230.145 32.9558 228.199 34.9713C226.253 36.9869 225.222 39.6511 225.314 42.4544L226.89 88.963C227.075 94.5232 231.581 98.8787 237.153 98.8787H307.869C313.452 98.8787 317.958 94.5116 318.132 88.9283L319.556 42.4196C319.638 39.6164 318.618 36.9638 316.661 34.9598C314.715 32.9442 312.097 31.8437 309.294 31.8437H235.589H235.577Z" fill="#953DA2"/>
<g style="mix-blend-mode:multiply">
<path d="M303.966 39.0371H239.203V77.5066H303.966V39.0371Z" fill="#D1D4FB"/>
</g>
<path d="M265.845 48.5823V67.9618L282.397 57.3859L265.845 48.5823Z" fill="white"/>
<g style="mix-blend-mode:multiply">
<path d="M303.966 84.5959H239.203V88.1174H303.966V84.5959Z" fill="#D1D4FB"/>
</g>
<path d="M240 85H239V88H240V85Z" fill="white"/>
<path fill-rule="evenodd" clip-rule="evenodd" d="M450.104 365.374L446.722 375.046C448.587 369.706 451.274 366.231 450.104 365.374ZM446.722 375.046L443.34 384.718C444.197 384.463 444.857 380.398 446.722 375.046ZM450.104 365.374L446.722 375.046C448.587 369.706 451.274 366.231 450.104 365.374ZM446.722 375.046L443.34 384.718C444.197 384.463 444.857 380.398 446.722 375.046ZM456.475 383.421L459.753 385.286L463.298 375.613L459.498 374.976C459.568 374.617 459.637 374.258 459.684 373.899C459.962 372.243 460.054 370.621 460.008 369.08L463.981 366.59L462.174 358.064L458.363 361.701C457.83 360.613 457.182 359.663 456.417 358.863C456.209 358.632 455.989 358.423 455.757 358.226L458.085 352.851L451.888 350.836L450.405 356.257C449.015 356.257 447.614 356.605 446.212 357.242L445.529 352.122L438.706 357.288L440.282 361.829C439.054 363.23 437.93 364.852 436.957 366.671L433.668 364.817L430.123 374.49L433.922 375.127C433.517 377.166 433.366 379.147 433.424 381.023L429.451 383.514L431.258 392.039L435.069 388.402C435.753 389.792 436.621 390.973 437.675 391.877L435.347 397.263L441.44 399.638L442.378 396.209L443.015 393.869C444.405 393.869 445.818 393.522 447.22 392.896L447.892 398.016L454.714 392.85L453.139 388.309C454.1 387.209 455.004 385.969 455.826 384.602C456.058 384.232 456.267 383.85 456.475 383.456V383.421ZM446.722 375.046C444.845 380.386 446.722 385.9 443.34 384.718C439.946 383.525 438.706 378.231 440.583 372.903C442.459 367.563 446.722 364.204 450.104 365.385C453.498 366.567 448.587 369.706 446.722 375.057V375.046ZM450.104 365.374L446.722 375.046C448.587 369.706 451.274 366.231 450.104 365.374ZM446.722 375.046L443.34 384.718C444.197 384.463 444.857 380.398 446.722 375.046Z" fill="url(#paint73_linear_791_557)"/>
<path fill-rule="evenodd" clip-rule="evenodd" d="M459.776 385.274L463.321 375.602L459.707 373.887L459.128 373.609L459.51 368.281L463.518 366.323L462.197 358.053L453.452 355.203L455.062 359.037L458.108 352.828L451.911 350.813L449.363 349.979L443.259 347.604L442.123 351.774L436.807 349.249L429.984 354.415L432.058 359.999L425.675 377.675L422.524 389.155L428.583 389.815L426.613 394.367L432.718 396.742L441.452 399.592L440.05 396.788L439.17 395.109L442.401 396.163L447.915 397.958L454.738 392.792L450.521 387.823L455.85 384.544L459.776 385.263V385.274ZM440.583 372.891C442.459 367.551 446.722 364.192 450.104 365.373L446.722 375.046L443.34 384.718C439.946 383.525 438.706 378.231 440.583 372.903V372.891Z" fill="url(#paint74_linear_791_557)"/>
<path fill-rule="evenodd" clip-rule="evenodd" d="M451.031 382.425L454.576 372.752L450.777 372.115C451.182 370.076 451.333 368.096 451.286 366.231L455.259 363.74L453.452 355.215L449.641 358.852C448.97 357.462 448.089 356.28 447.035 355.377L449.363 350.002L443.259 347.627L441.684 353.407C440.305 353.407 438.881 353.755 437.491 354.38L436.819 349.261L429.996 354.415L431.571 358.956C430.344 360.358 429.22 361.991 428.247 363.81L424.957 361.956L421.413 371.629L425.212 372.266C424.807 374.304 424.656 376.285 424.703 378.15L420.729 380.641L422.536 389.166L426.347 385.529C427.019 386.919 427.9 388.101 428.954 389.004L426.625 394.379L432.73 396.754L434.305 390.973C435.684 390.973 437.108 390.626 438.498 390L439.17 395.12L445.993 389.966L444.417 385.425C445.645 384.023 446.769 382.39 447.742 380.571L451.031 382.425ZM434.595 381.857C431.201 380.664 429.973 375.382 431.838 370.042C433.703 364.702 437.977 361.342 441.371 362.524C444.765 363.717 445.993 368.999 444.128 374.339C442.263 379.679 437.989 383.039 434.595 381.857Z" fill="url(#paint75_linear_791_557)"/>
<g style="mix-blend-mode:multiply" opacity="0.5">
<path fill-rule="evenodd" clip-rule="evenodd" d="M463.993 366.578L455.259 363.74L451.286 366.231L460.02 369.069L463.993 366.578Z" fill="#601734"/>
</g>
<g style="mix-blend-mode:soft-light">
<path fill-rule="evenodd" clip-rule="evenodd" d="M454.739 392.804L445.993 389.954L444.418 385.425L453.163 388.274L454.739 392.804Z" fill="#B3D9FF"/>
</g>
<g style="mix-blend-mode:multiply" opacity="0.5">
<path fill-rule="evenodd" clip-rule="evenodd" d="M447.023 355.377L451.819 356.767L453.441 355.214L456.626 356.245L458.097 352.84L449.363 350.002L447.023 355.377Z" fill="#601734"/>
</g>
<g style="mix-blend-mode:multiply" opacity="0.5">
<path fill-rule="evenodd" clip-rule="evenodd" d="M434.294 390.985L438.869 392.885L438.487 390C438.487 390 436.02 391.298 434.294 390.974V390.985Z" fill="#601734"/>
</g>
<g style="mix-blend-mode:multiply" opacity="0.5">
<path fill-rule="evenodd" clip-rule="evenodd" d="M435 364.771L442.703 368.848C442.703 368.848 443.815 367.354 444.684 366.752C444.684 366.752 442.668 358.249 434.988 364.771H435Z" fill="#601734"/>
</g>
<path fill-rule="evenodd" clip-rule="evenodd" d="M461.295 131.244L459.615 92.2529H510.663L508.566 131.128L461.295 131.244Z" fill="url(#paint76_linear_791_557)"/>
<path fill-rule="evenodd" clip-rule="evenodd" d="M459.615 92.2529L458.086 94.5465L459.615 131.244H461.294L459.615 92.2529Z" fill="url(#paint77_linear_791_557)"/>
<path d="M476.562 100.037L468.558 99.1799L469.646 125.892L476.562 125.22V122.452L472.554 122.544L472.102 101.948L476.562 102.076V100.037Z" fill="white"/>
<path d="M492.975 100.037L500.979 99.1799L499.878 125.892L492.975 125.22V122.452L496.971 122.544L497.434 101.948L492.975 102.076V100.037Z" fill="white"/>
<path fill-rule="evenodd" clip-rule="evenodd" d="M109.288 216.592L110.435 190.008H75.6387L77.0634 216.511L109.288 216.592Z" fill="url(#paint78_linear_791_557)"/>
<path fill-rule="evenodd" clip-rule="evenodd" d="M110.435 190.008L111.477 191.583L110.435 216.592H109.288L110.435 190.008Z" fill="url(#paint79_linear_791_557)"/>
<path d="M97.0328 195.359C97.0328 195.359 100.844 195.209 101.527 195.521C102.199 195.834 101.353 202.055 101.353 202.055L102.871 203.456L101.446 204.835C101.446 204.835 101.516 211.136 100.624 211.658C99.7317 212.179 96.6621 211.658 96.6621 211.658V210.082C96.6621 210.082 99.1641 210.244 99.5811 209.908C99.9981 209.572 99.9518 204.07 99.9518 204.07L100.624 203.329L99.9518 202.53C99.9518 202.53 100.079 198.603 99.9981 197.525C99.9518 196.807 97.0328 196.772 97.0328 196.772V195.359V195.359Z" fill="white"/>
<path d="M88.2872 195.359C88.2872 195.359 84.4763 195.209 83.7929 195.521C83.1095 195.834 83.9666 202.055 83.9666 202.055L82.4492 203.456L83.874 204.835C83.874 204.835 83.8045 211.136 84.6964 211.658C85.5883 212.179 88.6579 211.658 88.6579 211.658V210.082C88.6579 210.082 86.1559 210.244 85.7389 209.908C85.3219 209.572 85.3682 204.07 85.3682 204.07L84.6964 203.329L85.3682 202.53C85.3682 202.53 85.2408 198.603 85.3219 197.525C85.3682 196.807 88.2872 196.772 88.2872 196.772V195.359V195.359Z" fill="white"/>
<path d="M393.74 356.964L385.689 346.944L386.141 346.585L394.192 356.605L393.74 356.964Z" fill="#744CA2"/>
</g>
<defs>
<linearGradient id="paint0_linear_791_557" x1="212.688" y1="81.4487" x2="466.64" y2="335.392" gradientUnits="userSpaceOnUse">
<stop stop-color="#2248A5"/>
<stop offset="1" stop-color="#9533B2"/>
</linearGradient>
<linearGradient id="paint1_linear_791_557" x1="327.45" y1="244.764" x2="327.45" y2="203.514" gradientUnits="userSpaceOnUse">
<stop stop-color="#D5CDF8"/>
<stop offset="1" stop-color="#F3EDFB"/>
</linearGradient>
<linearGradient id="paint2_linear_791_557" x1="306.218" y1="224.098" x2="348.682" y2="224.098" gradientUnits="userSpaceOnUse">
<stop stop-color="#CCCCFF"/>
<stop offset="1" stop-color="#755CBB"/>
</linearGradient>
<linearGradient id="paint3_linear_791_557" x1="315.311" y1="409.577" x2="315.311" y2="201.719" gradientUnits="userSpaceOnUse">
<stop stop-color="#9E8CEF"/>
<stop offset="1" stop-color="#CAAFEE"/>
</linearGradient>
<linearGradient id="paint4_linear_791_557" x1="229.05" y1="280.059" x2="279.669" y2="280.059" gradientUnits="userSpaceOnUse">
<stop stop-color="#CCCCFF"/>
<stop offset="1" stop-color="#755CBB"/>
</linearGradient>
<linearGradient id="paint5_linear_791_557" x1="227.486" y1="338.268" x2="227.486" y2="241.069" gradientUnits="userSpaceOnUse">
<stop stop-color="#9E8CEF"/>
<stop offset="1" stop-color="#DAC7F3"/>
</linearGradient>
<linearGradient id="paint6_linear_791_557" x1="394.622" y1="310.258" x2="459.848" y2="310.258" gradientUnits="userSpaceOnUse">
<stop stop-color="#A999F1"/>
<stop offset="1" stop-color="#DAC7F3"/>
</linearGradient>
<linearGradient id="paint7_linear_791_557" x1="206.265" y1="227.817" x2="206.265" y2="202.182" gradientUnits="userSpaceOnUse">
<stop offset="0.02" stop-color="#FFC2A9"/>
<stop offset="1" stop-color="#FF9595"/>
</linearGradient>
<linearGradient id="paint8_linear_791_557" x1="222.412" y1="227.203" x2="222.412" y2="184.783" gradientUnits="userSpaceOnUse">
<stop stop-color="#FFEADB"/>
<stop offset="0.99" stop-color="#C27CB6"/>
</linearGradient>
<linearGradient id="paint9_linear_791_557" x1="221.033" y1="256.07" x2="221.033" y2="190.668" gradientUnits="userSpaceOnUse">
<stop offset="0.02" stop-color="#FFC2A9"/>
<stop offset="1" stop-color="#FF9595"/>
</linearGradient>
<linearGradient id="paint10_linear_791_557" x1="209.335" y1="245.864" x2="229.895" y2="245.864" gradientUnits="userSpaceOnUse">
<stop offset="0.02" stop-color="#D1A1D6"/>
<stop offset="0.99" stop-color="#BD89C4"/>
</linearGradient>
<linearGradient id="paint11_linear_791_557" x1="461.192" y1="295.906" x2="461.192" y2="208.449" gradientUnits="userSpaceOnUse">
<stop offset="0.02" stop-color="#FFC2A9"/>
<stop offset="1" stop-color="#FF9595"/>
</linearGradient>
<linearGradient id="paint12_linear_791_557" x1="471.524" y1="267.885" x2="471.524" y2="224.434" gradientUnits="userSpaceOnUse">
<stop stop-color="#FFEADB"/>
<stop offset="0.99" stop-color="#C27CB6"/>
</linearGradient>
<linearGradient id="paint13_linear_791_557" x1="480.095" y1="252.884" x2="480.095" y2="233.412" gradientUnits="userSpaceOnUse">
<stop stop-color="#FFB0B0"/>
<stop offset="0.98" stop-color="#FFC2A9"/>
</linearGradient>
<linearGradient id="paint14_linear_791_557" x1="491.39" y1="255.884" x2="491.39" y2="245.204" gradientUnits="userSpaceOnUse">
<stop stop-color="#FFB0B0"/>
<stop offset="0.98" stop-color="#FFC2A9"/>
</linearGradient>
<linearGradient id="paint15_linear_791_557" x1="445.704" y1="277.175" x2="465.569" y2="277.175" gradientUnits="userSpaceOnUse">
<stop offset="0.02" stop-color="#D1A1D6"/>
<stop offset="0.99" stop-color="#BD89C4"/>
</linearGradient>
<linearGradient id="paint16_linear_791_557" x1="418.055" y1="345.739" x2="418.055" y2="247.845" gradientUnits="userSpaceOnUse">
<stop stop-color="#CCCCFF"/>
<stop offset="1" stop-color="#755CBB"/>
</linearGradient>
<linearGradient id="paint17_linear_791_557" x1="202.524" y1="326.012" x2="366.254" y2="326.012" gradientUnits="userSpaceOnUse">
<stop stop-color="#CCCCFF"/>
<stop offset="1" stop-color="#755CBB"/>
</linearGradient>
<linearGradient id="paint18_linear_791_557" x1="346.875" y1="298.617" x2="378.162" y2="298.617" gradientUnits="userSpaceOnUse">
<stop stop-color="#CCEDFF"/>
<stop offset="1" stop-color="#755CBB"/>
</linearGradient>
<linearGradient id="paint19_linear_791_557" x1="318.484" y1="353.546" x2="364.482" y2="353.546" gradientUnits="userSpaceOnUse">
<stop stop-color="#CCEDFF"/>
<stop offset="1" stop-color="#755CBB"/>
</linearGradient>
<linearGradient id="paint20_linear_791_557" x1="320.615" y1="374.339" x2="369.751" y2="374.339" gradientUnits="userSpaceOnUse">
<stop stop-color="#CCEDFF"/>
<stop offset="1" stop-color="#755CBB"/>
</linearGradient>
<linearGradient id="paint21_linear_791_557" x1="278.325" y1="322.849" x2="278.325" y2="267.699" gradientUnits="userSpaceOnUse">
<stop stop-color="#CCEDFF"/>
<stop offset="1" stop-color="#755CBB"/>
</linearGradient>
<linearGradient id="paint22_linear_791_557" x1="282.761" y1="327.483" x2="282.761" y2="285.677" gradientUnits="userSpaceOnUse">
<stop stop-color="#CCEDFF"/>
<stop offset="1" stop-color="#755CBB"/>
</linearGradient>
<linearGradient id="paint23_linear_791_557" x1="216.701" y1="274.048" x2="216.701" y2="242.459" gradientUnits="userSpaceOnUse">
<stop stop-color="#CCEDFF"/>
<stop offset="1" stop-color="#755CBB"/>
</linearGradient>
<linearGradient id="paint24_linear_791_557" x1="242.255" y1="246.235" x2="254.985" y2="246.235" gradientUnits="userSpaceOnUse">
<stop stop-color="#CCEDFF"/>
<stop offset="1" stop-color="#755CBB"/>
</linearGradient>
<linearGradient id="paint25_linear_791_557" x1="380.628" y1="322.849" x2="380.628" y2="264.305" gradientUnits="userSpaceOnUse">
<stop stop-color="#CCCCFF"/>
<stop offset="1" stop-color="#755CBB"/>
</linearGradient>
<linearGradient id="paint26_linear_791_557" x1="446.445" y1="310.258" x2="446.445" y2="279.666" gradientUnits="userSpaceOnUse">
<stop stop-color="#CCCCFF"/>
<stop offset="1" stop-color="#755CBB"/>
</linearGradient>
<linearGradient id="paint27_linear_791_557" x1="411.753" y1="308.891" x2="411.753" y2="285.504" gradientUnits="userSpaceOnUse">
<stop stop-color="#CCCCFF"/>
<stop offset="1" stop-color="#755CBB"/>
</linearGradient>
<linearGradient id="paint28_linear_791_557" x1="210.088" y1="276.063" x2="210.088" y2="267.375" gradientUnits="userSpaceOnUse">
<stop stop-color="#CCEDFF"/>
<stop offset="1" stop-color="#755CBB"/>
</linearGradient>
<linearGradient id="paint29_linear_791_557" x1="233.289" y1="302.543" x2="233.289" y2="255.073" gradientUnits="userSpaceOnUse">
<stop stop-color="#CCCCFF"/>
<stop offset="1" stop-color="#755CBB"/>
</linearGradient>
<linearGradient id="paint30_linear_791_557" x1="355.4" y1="269.124" x2="355.4" y2="233.412" gradientUnits="userSpaceOnUse">
<stop stop-color="#CCEDFF"/>
<stop offset="1" stop-color="#755CBB"/>
</linearGradient>
<linearGradient id="paint31_linear_791_557" x1="308.604" y1="264.305" x2="308.604" y2="215.005" gradientUnits="userSpaceOnUse">
<stop stop-color="#CCEDFF"/>
<stop offset="1" stop-color="#755CBB"/>
</linearGradient>
<linearGradient id="paint32_linear_791_557" x1="291.958" y1="273.318" x2="374.304" y2="273.318" gradientUnits="userSpaceOnUse">
<stop stop-color="#8642A0"/>
<stop offset="1" stop-color="#6456C0"/>
</linearGradient>
<linearGradient id="paint33_linear_791_557" x1="299.059" y1="225.801" x2="352.643" y2="225.801" gradientUnits="userSpaceOnUse">
<stop stop-color="#CCCCFF"/>
<stop offset="1" stop-color="#755CBB"/>
</linearGradient>
<linearGradient id="paint34_linear_791_557" x1="436.808" y1="306.771" x2="436.808" y2="275.762" gradientUnits="userSpaceOnUse">
<stop stop-color="#CCCCFF"/>
<stop offset="1" stop-color="#755CBB"/>
</linearGradient>
<linearGradient id="paint35_linear_791_557" x1="392.976" y1="341.754" x2="392.976" y2="247.845" gradientUnits="userSpaceOnUse">
<stop stop-color="#CCCCFF"/>
<stop offset="1" stop-color="#755CBB"/>
</linearGradient>
<linearGradient id="paint36_linear_791_557" x1="292.016" y1="385.865" x2="292.016" y2="358.944" gradientUnits="userSpaceOnUse">
<stop stop-color="#CCCCFF"/>
<stop offset="1" stop-color="#755CBB"/>
</linearGradient>
<linearGradient id="paint37_linear_791_557" x1="344.303" y1="378.474" x2="344.303" y2="365.396" gradientUnits="userSpaceOnUse">
<stop stop-color="#CCCCFF"/>
<stop offset="1" stop-color="#755CBB"/>
</linearGradient>
<linearGradient id="paint38_linear_791_557" x1="343.735" y1="210.43" x2="343.735" y2="120.992" gradientUnits="userSpaceOnUse">
<stop offset="0.02" stop-color="#FFC2A9"/>
<stop offset="1" stop-color="#FF9595"/>
</linearGradient>
<linearGradient id="paint39_linear_791_557" x1="310.398" y1="174.346" x2="310.398" y2="147.97" gradientUnits="userSpaceOnUse">
<stop offset="0.02" stop-color="#FFC2A9"/>
<stop offset="1" stop-color="#FF9595"/>
</linearGradient>
<linearGradient id="paint40_linear_791_557" x1="356.164" y1="184.32" x2="357.265" y2="178.563" gradientUnits="userSpaceOnUse">
<stop stop-color="#E1616A"/>
<stop offset="1" stop-color="#FF8883"/>
</linearGradient>
<linearGradient id="paint41_linear_791_557" x1="346.18" y1="179.907" x2="346.18" y2="122.301" gradientUnits="userSpaceOnUse">
<stop stop-color="#FFEADB"/>
<stop offset="0.99" stop-color="#C27CB6"/>
</linearGradient>
<linearGradient id="paint42_linear_791_557" x1="343.376" y1="156.311" x2="343.376" y2="144.901" gradientUnits="userSpaceOnUse">
<stop stop-color="#CF6074"/>
<stop offset="1" stop-color="#F37270"/>
</linearGradient>
<linearGradient id="paint43_linear_791_557" x1="366.137" y1="159.936" x2="366.137" y2="150.009" gradientUnits="userSpaceOnUse">
<stop stop-color="#CF6074"/>
<stop offset="1" stop-color="#FF817F"/>
</linearGradient>
<linearGradient id="paint44_linear_791_557" x1="367.076" y1="165.716" x2="367.076" y2="143.371" gradientUnits="userSpaceOnUse">
<stop stop-color="#FFEADB"/>
<stop offset="0.99" stop-color="#C27CB6"/>
</linearGradient>
<linearGradient id="paint45_linear_791_557" x1="344.928" y1="211.553" x2="344.928" y2="103.095" gradientUnits="userSpaceOnUse">
<stop stop-color="#2E33A0"/>
<stop offset="1" stop-color="#0665A5"/>
</linearGradient>
<linearGradient id="paint46_linear_791_557" x1="373.423" y1="143.256" x2="373.423" y2="118.235" gradientUnits="userSpaceOnUse">
<stop stop-color="#FFEADB"/>
<stop offset="0.99" stop-color="#8860C7"/>
</linearGradient>
<linearGradient id="paint47_linear_791_557" x1="339.322" y1="211.553" x2="339.322" y2="103.095" gradientUnits="userSpaceOnUse">
<stop stop-color="#CCC2DB"/>
<stop offset="0.99" stop-color="#8860C7"/>
</linearGradient>
<linearGradient id="paint48_linear_791_557" x1="346.597" y1="211.53" x2="346.597" y2="206.873" gradientUnits="userSpaceOnUse">
<stop stop-color="#776D7E"/>
<stop offset="1" stop-color="#9D68C2"/>
</linearGradient>
<linearGradient id="paint49_linear_791_557" x1="360.265" y1="110.879" x2="360.265" y2="107.416" gradientUnits="userSpaceOnUse">
<stop stop-color="#1F77D1"/>
<stop offset="1" stop-color="#0686C9"/>
</linearGradient>
<linearGradient id="paint50_linear_791_557" x1="338.21" y1="122.278" x2="338.21" y2="112.038" gradientUnits="userSpaceOnUse">
<stop stop-color="#1F77D1"/>
<stop offset="1" stop-color="#0686C9"/>
</linearGradient>
<linearGradient id="paint51_linear_791_557" x1="375.3" y1="127.467" x2="375.3" y2="118.235" gradientUnits="userSpaceOnUse">
<stop stop-color="#1F77D1"/>
<stop offset="1" stop-color="#0686C9"/>
</linearGradient>
<linearGradient id="paint52_linear_791_557" x1="314.233" y1="168.091" x2="302.417" y2="153.623" gradientUnits="userSpaceOnUse">
<stop stop-color="#FFEADB"/>
<stop offset="0.99" stop-color="#B060F4"/>
</linearGradient>
<linearGradient id="paint53_linear_791_557" x1="315.472" y1="166.226" x2="309.657" y2="159.114" gradientUnits="userSpaceOnUse">
<stop stop-color="#FFEADB"/>
<stop offset="0.99" stop-color="#B060F4"/>
</linearGradient>
<linearGradient id="paint54_linear_791_557" x1="337.527" y1="123.193" x2="357.532" y2="123.193" gradientUnits="userSpaceOnUse">
<stop stop-color="#1F77D1"/>
<stop offset="1" stop-color="#0686C9"/>
</linearGradient>
<linearGradient id="paint55_linear_791_557" x1="365.744" y1="183.011" x2="371.802" y2="183.011" gradientUnits="userSpaceOnUse">
<stop stop-color="#1F77D1"/>
<stop offset="1" stop-color="#0686C9"/>
</linearGradient>
<linearGradient id="paint56_linear_791_557" x1="358.25" y1="178.493" x2="364.795" y2="178.493" gradientUnits="userSpaceOnUse">
<stop stop-color="#1F77D1"/>
<stop offset="1" stop-color="#0686C9"/>
</linearGradient>
<linearGradient id="paint57_linear_791_557" x1="194.744" y1="316.105" x2="159.84" y2="241.392" gradientUnits="userSpaceOnUse">
<stop stop-color="#DBCCFF"/>
<stop offset="1" stop-color="#D1BBFF"/>
</linearGradient>
<linearGradient id="paint58_linear_791_557" x1="196.097" y1="319.027" x2="161.193" y2="244.314" gradientUnits="userSpaceOnUse">
<stop stop-color="#B5A6E7"/>
<stop offset="1" stop-color="#7760BF"/>
</linearGradient>
<linearGradient id="paint59_linear_791_557" x1="187.42" y1="300.451" x2="172.706" y2="268.956" gradientUnits="userSpaceOnUse">
<stop stop-color="#B5A6E7"/>
<stop offset="1" stop-color="#7760BF"/>
</linearGradient>
<linearGradient id="paint60_linear_791_557" x1="168.53" y1="271.674" x2="177.472" y2="267.497" gradientUnits="userSpaceOnUse">
<stop stop-color="#8B8BE0"/>
<stop offset="1" stop-color="#A177B7"/>
</linearGradient>
<linearGradient id="paint61_linear_791_557" x1="173.972" y1="271.664" x2="171.442" y2="266.248" gradientUnits="userSpaceOnUse">
<stop stop-color="white"/>
<stop offset="1" stop-color="#A177B7"/>
</linearGradient>
<linearGradient id="paint62_linear_791_557" x1="193.652" y1="301.451" x2="177.434" y2="266.734" gradientUnits="userSpaceOnUse">
<stop/>
<stop offset="1" stop-color="white"/>
</linearGradient>
<linearGradient id="paint63_linear_791_557" x1="407.501" y1="187.598" x2="612.584" y2="187.598" gradientUnits="userSpaceOnUse">
<stop stop-color="#9D68C2"/>
<stop offset="1" stop-color="#AEC2FF"/>
</linearGradient>
<linearGradient id="paint64_linear_791_557" x1="449.213" y1="265.059" x2="449.213" y2="203.202" gradientUnits="userSpaceOnUse">
<stop stop-color="#CCEDFF"/>
<stop offset="1" stop-color="#9D68C2"/>
</linearGradient>
<linearGradient id="paint65_linear_791_557" x1="554.69" y1="234.895" x2="554.69" y2="207.65" gradientUnits="userSpaceOnUse">
<stop stop-color="#CCEDFF"/>
<stop offset="1" stop-color="#9D68C2"/>
</linearGradient>
<linearGradient id="paint66_linear_791_557" x1="586.846" y1="234.895" x2="586.846" y2="207.65" gradientUnits="userSpaceOnUse">
<stop stop-color="#CCEDFF"/>
<stop offset="1" stop-color="#9D68C2"/>
</linearGradient>
<linearGradient id="paint67_linear_791_557" x1="522.014" y1="234.895" x2="522.014" y2="207.65" gradientUnits="userSpaceOnUse">
<stop stop-color="#CCEDFF"/>
<stop offset="1" stop-color="#9D68C2"/>
</linearGradient>
<linearGradient id="paint68_linear_791_557" x1="228.967" y1="167.952" x2="228.967" y2="139.433" gradientUnits="userSpaceOnUse">
<stop stop-color="#D93DE3"/>
<stop offset="1" stop-color="#FF6DBA"/>
</linearGradient>
<linearGradient id="paint69_linear_791_557" x1="246.4" y1="167.952" x2="246.4" y2="139.433" gradientUnits="userSpaceOnUse">
<stop stop-color="#A242EA"/>
<stop offset="1" stop-color="#FE117E"/>
</linearGradient>
<linearGradient id="paint70_linear_791_557" x1="180.471" y1="426.964" x2="195.89" y2="304.165" gradientUnits="userSpaceOnUse">
<stop stop-color="#067EFF"/>
<stop offset="1" stop-color="#3E37A0"/>
</linearGradient>
<linearGradient id="paint71_linear_791_557" x1="506.151" y1="431.98" x2="506.151" y2="377.93" gradientUnits="userSpaceOnUse">
<stop stop-color="#D906E3"/>
<stop offset="1" stop-color="#FF6DF9"/>
</linearGradient>
<linearGradient id="paint72_linear_791_557" x1="272.424" y1="99.1683" x2="272.424" y2="31.5542" gradientUnits="userSpaceOnUse">
<stop stop-color="#D906E3"/>
<stop offset="1" stop-color="#FF6DF9"/>
</linearGradient>
<linearGradient id="paint73_linear_791_557" x1="443.054" y1="399.845" x2="450.352" y2="350.598" gradientUnits="userSpaceOnUse">
<stop stop-color="#1852A0"/>
<stop offset="1" stop-color="#067ED3"/>
</linearGradient>
<linearGradient id="paint74_linear_791_557" x1="437.612" y1="398.583" x2="450.788" y2="349.647" gradientUnits="userSpaceOnUse">
<stop stop-color="#1852A0"/>
<stop offset="1" stop-color="#067ED3"/>
</linearGradient>
<linearGradient id="paint75_linear_791_557" x1="431.867" y1="395.407" x2="439.633" y2="345.95" gradientUnits="userSpaceOnUse">
<stop stop-color="#188DC1"/>
<stop offset="1" stop-color="#06BFE7"/>
</linearGradient>
<linearGradient id="paint76_linear_791_557" x1="477.639" y1="135.646" x2="490.764" y2="86.8899" gradientUnits="userSpaceOnUse">
<stop stop-color="#188DC1"/>
<stop offset="1" stop-color="#06BFE7"/>
</linearGradient>
<linearGradient id="paint77_linear_791_557" x1="455.074" y1="130.016" x2="464.863" y2="93.6663" gradientUnits="userSpaceOnUse">
<stop stop-color="#1852A0"/>
<stop offset="1" stop-color="#067ED3"/>
</linearGradient>
<linearGradient id="paint78_linear_791_557" x1="98.1567" y1="219.592" x2="89.2022" y2="186.359" gradientUnits="userSpaceOnUse">
<stop stop-color="#188DC1"/>
<stop offset="1" stop-color="#06BFE7"/>
</linearGradient>
<linearGradient id="paint79_linear_791_557" x1="113.528" y1="215.758" x2="106.855" y2="190.981" gradientUnits="userSpaceOnUse">
<stop stop-color="#1852A0"/>
<stop offset="1" stop-color="#067ED3"/>
</linearGradient>
<clipPath id="clip0_791_557">
<rect width="695" height="512" fill="white"/>
</clipPath>
</defs>
</svg>